<svg width="72" height="30" viewBox="0 0 72 30" fill="none" xmlns="http://www.w3.org/2000/svg"><g clip-path="url(#a)"><path fill-rule="evenodd" clip-rule="evenodd" d="M8.6 19.271H3.906L2.755 22.06H0L6.379 7.276h.126l6.358 14.783H9.646l-1.048-2.788Zm-.933-2.376-1.361-3.463-1.425 3.463h2.786Z" fill="#fff"/><path d="M21.242 10.222a2.457 2.457 0 0 0-1.435.338 1.266 1.266 0 0 0-.513 1.14 1.433 1.433 0 0 0 .744 1.183 8.81 8.81 0 0 0 1.969.982 8.354 8.354 0 0 1 1.717.845c.488.338.89.786 1.174 1.31.332.65.491 1.379.46 2.111a3.889 3.889 0 0 1-.598 2.1 3.843 3.843 0 0 1-1.633 1.438 5.575 5.575 0 0 1-2.608.549 8.317 8.317 0 0 1-2.493-.38 7.591 7.591 0 0 1-2.325-1.141l1.278-2.196a6.33 6.33 0 0 0 1.665.887c.541.218 1.115.34 1.697.359a3.029 3.029 0 0 0 1.54-.38 1.305 1.305 0 0 0 .618-1.257c0-.729-.68-1.362-2.095-1.89a17.541 17.541 0 0 1-2.021-.93 4.2 4.2 0 0 1-1.404-1.256 3.537 3.537 0 0 1-.587-2.112 3.887 3.887 0 0 1 1.226-2.946 4.838 4.838 0 0 1 3.195-1.257 8.504 8.504 0 0 1 2.629.36 8.771 8.771 0 0 1 2.095 1.055l-1.048 2.112a6.811 6.811 0 0 0-3.247-1.024Z" fill="#fff"/><path d="M38.598 10.56V7.804h-9.532v2.756h3.3v11.5h2.797v-11.5h3.435Z" fill="#fff"/><path d="M43.165 10.56V7.804h9.657v2.756h-9.657Z" fill="#fff"/><path d="M43.165 16.315v-2.757h8.903v2.714l-8.903.043Z" fill="#fff"/><path d="M45.951 19.398h7.133v2.703h-9.92v-2.745l2.787.042Z" fill="#fff"/><path fill-rule="evenodd" clip-rule="evenodd" d="M65.758 22.06h6.599v-2.746h-2.252a7.508 7.508 0 0 0 1.047-2.049 7.15 7.15 0 0 0-.618-5.934 7.563 7.563 0 0 0-2.66-2.683 7.006 7.006 0 0 0-7.206 0 7.364 7.364 0 0 0-2.63 2.683 7.296 7.296 0 0 0-.723 5.507 7.28 7.28 0 0 0 1.241 2.54 7.215 7.215 0 0 0 2.112 1.868 6.974 6.974 0 0 0 3.603.972c.5 0 .998-.053 1.487-.159Zm-3.624-3.18a4.545 4.545 0 0 1-1.603-1.647 4.549 4.549 0 0 1-.534-2.28 4.58 4.58 0 0 1 .576-2.281.787.787 0 0 1 .074-.127 4.288 4.288 0 0 1 1.591-1.56 4.246 4.246 0 0 1 4.286.074 4.292 4.292 0 0 1 1.538 1.613c.378.7.576 1.484.577 2.28 0 .795-.19 1.577-.555 2.281a4.453 4.453 0 0 1-1.54 1.648 4.05 4.05 0 0 1-2.168.623 4.164 4.164 0 0 1-2.242-.623Z" fill="#fff"/></g><defs><clipPath id="a"><path fill="#fff" d="M0 0h72v30H0z"/></clipPath></defs></svg>