<svg width="215" height="150" viewBox="0 0 215 150" fill="none" xmlns="http://www.w3.org/2000/svg"><path fill-rule="evenodd" clip-rule="evenodd" d="m9.684 94.109 3.5 4.811.402.558c1.092 1.482 2.085 2.241 2.95 2.296h.412c.148 0 .226.064.217.165-.01.1-.197.219-.56.32a5.318 5.318 0 0 1-1.259.137 3.729 3.729 0 0 1-2.045-.576 7.528 7.528 0 0 1-1.848-1.903l-3.145-4.482-.177-.265a1.053 1.053 0 0 0-.42-.37 1.15 1.15 0 0 0-.563-.115H5.457l-.285.055c-.098.046-.148.174-.148.375v4.153c-.017.462.019.926.109 1.381.087.271.27.507.52.668a3.43 3.43 0 0 0 1.682.503c.308.036.465.128.471.274 0 .156-.127.238-.422.238l-.747-.055c-.344 0-.885-.046-1.613-.046H3.157c-.295 0-.64 0-1.042.055-.403.055-.56.055-.688.055-.128 0-.315-.082-.315-.247 0-.164.098-.192.315-.228.281-.026.552-.118.784-.269.232-.15.42-.354.543-.591.275-.866.385-1.77.324-2.671v-9.696c0-1.226-.452-1.912-1.376-2.05l-.6-.09C.827 86.451.7 86.36.7 86.214c0-.147.138-.238.433-.238.059 0 .363 0 .884.045h1.121c.442 0 1.062 0 1.966-.082.678 0 1.268-.064 1.79-.064a7.796 7.796 0 0 1 4.393 1.025c.496.354.891.816 1.15 1.346.259.53.374 1.11.335 1.69.049 1.84-.993 3.202-3.087 4.172Zm-3.726-.266h1.465a3.788 3.788 0 0 0 2.615-.841 3.1 3.1 0 0 0 .755-1.07c.17-.402.247-.832.228-1.263a3.439 3.439 0 0 0-.312-1.54 3.676 3.676 0 0 0-.976-1.277 4.895 4.895 0 0 0-3.293-1.098 1.677 1.677 0 0 0-1.032.229 1 1 0 0 0-.24.387.974.974 0 0 0-.045.445v5.187c0 .366.049.604.157.695.204.115.441.166.678.146Zm20.644-4.299v8.818a7.105 7.105 0 0 0 .216 2.177c.114.336.333.632.629.851.355.2.756.319 1.17.348.422.064.629.155.629.301 0 .147-.128.275-.383.275-.16.011-.322.011-.482 0h-3.185l-1.494.082h-.61c-.157 0-.334-.082-.334-.247 0-.165.128-.229.393-.265.243-.014.48-.076.693-.184.214-.107.4-.257.546-.438.239-.63.333-1.3.275-1.967V89.233a3.753 3.753 0 0 0-.354-1.967 2.205 2.205 0 0 0-.697-.487 2.346 2.346 0 0 0-.846-.199c-.265-.045-.393-.137-.413-.274-.02-.137.118-.265.374-.265h.226a28.42 28.42 0 0 0 2.457.091h1.612l.846-.055h.314c.226 0 .344.073.344.229 0 .156-.108.247-.324.311l-.669.238c-.619.082-.933 1.024-.933 2.69Zm24.575.76c-.718 1.18-1.2 1.984-1.435 2.442l-1.13 2.25-1.288 2.479-1.052 2.223a32.022 32.022 0 0 1-.688 1.363l-.227.439c-.176.375-.353.558-.55.558-.197 0-.393-.192-.58-.577 0-.073-.147-.283-.354-.649l-.255-.494-4.739-9.586-.294 5.836v2.881c0 1.436.53 2.15 1.572 2.296.512.082.777.201.777.357 0 .155-.128.274-.374.274-.153.01-.308.01-.462 0-.983-.073-1.68-.119-2.192-.119a13.762 13.762 0 0 0-1.77.11h-.402c-.246 0-.374-.092-.374-.265 0-.174.099-.211.305-.256a1.95 1.95 0 0 0 .739-.272c.222-.139.41-.321.549-.533a4.561 4.561 0 0 0 .442-2.05l.187-3.42c.118-2.48.187-4.044.187-4.693a6.322 6.322 0 0 0-.6-3.11 2.536 2.536 0 0 0-.824-.84 2.765 2.765 0 0 0-1.142-.404c-.256 0-.383-.137-.383-.293 0-.155.108-.256.314-.256h.423c.285.016.57.016.855 0h1.789c.364 0 .669.256.914.75l.138.265 5.279 10.602.649 1.217c.098.21.167.31.206.31.04 0 .118-.082.187-.228l.157-.32.108-.229 5.957-11.891c.073-.167.168-.324.285-.467a.456.456 0 0 1 .335-.091l.56.045h.413c.405.027.812.033 1.219.019h.363c.168 0 .256.064.256.238a.263.263 0 0 1-.072.182.301.301 0 0 1-.184.092l-.55.137a1.294 1.294 0 0 0-.552.26c-.158.127-.279.29-.352.472a5.184 5.184 0 0 0-.256 1.948l.079 2.845.235 6.403.07 1.491c-.05.453.076.906.353 1.281a2.04 2.04 0 0 0 1.288.521c.442.064.678.165.678.32 0 .156-.167.229-.472.229h-.324l-.983-.091a9.65 9.65 0 0 0-1.062-.055c-.268 0-.681.018-1.238.055l-1.524.055c-.246 0-.364-.065-.364-.211s.099-.21.315-.265c.401-.077.754-.297.983-.613a3.03 3.03 0 0 0 .255-1.491l-.049-1.92-.324-7.557Zm20.398 5.735h-4.581a2.88 2.88 0 0 0-1.17.146 2.722 2.722 0 0 0-.61.915l-.825 1.738a4.655 4.655 0 0 0-.55 1.765.951.951 0 0 0 .052.433 1 1 0 0 0 .242.372c.35.222.75.366 1.17.421.255.055.383.146.393.284.01.137-.108.192-.354.192h-.432l-1.21-.055h-2.683c-.226 0-.344-.064-.344-.211a.228.228 0 0 1 .057-.162.264.264 0 0 1 .16-.085l.461-.128c.282-.129.52-.328.688-.576.277-.322.515-.671.708-1.043l.374-.777 6.507-13.447c.108-.238.236-.347.364-.347s.255.11.344.338l5.446 12.97.275.641a5.89 5.89 0 0 0 .983 1.775 3.556 3.556 0 0 0 1.602.549c.256.045.384.146.374.292-.01.147-.128.192-.354.192h-.472c-.442 0-1.229-.064-2.36-.064a19.96 19.96 0 0 0-2.201.074 3.22 3.22 0 0 1-.393 0c-.217 0-.325-.083-.325-.247 0-.119.099-.202.315-.247l.393-.083a.769.769 0 0 0 .496-.275.667.667 0 0 0 .143-.52 8.708 8.708 0 0 0-.776-2.489l-.63-1.564a1.969 1.969 0 0 0-.422-.75 2.174 2.174 0 0 0-.856-.027Zm.157-1.885-1.966-4.665-.099-.247c-.098-.256-.206-.384-.324-.384-.059 0-.138.064-.206.22l-2.507 5.131c-.074.136-.127.28-.157.43 0 .21.196.311.58.311h4.168c.432 0 .629-.1.629-.293a1.093 1.093 0 0 0-.06-.274l-.058-.229Zm21.115 0 3.5 4.812.412.558c1.082 1.482 2.075 2.241 2.95 2.296h.412c.148 0 .226.064.216.164-.009.101-.196.22-.56.321a5.288 5.288 0 0 1-1.248.137 3.701 3.701 0 0 1-2.045-.576 7.243 7.243 0 0 1-1.848-1.903l-3.155-4.482-.177-.265a1.042 1.042 0 0 0-.419-.37 1.138 1.138 0 0 0-.565-.115h-1.68l-.285.055c-.099.045-.148.173-.148.375v4.153a5.97 5.97 0 0 0 .108 1.381c.087.271.271.507.521.667.5.308 1.082.482 1.681.504.302.036.459.128.472.274 0 .156-.128.238-.423.238l-.747-.055c-.344 0-.885-.046-1.612-.046H86.34c-.285 0-.639 0-1.042.055a7.192 7.192 0 0 1-.688.055c-.206 0-.314-.082-.314-.247 0-.165.108-.192.314-.229a1.76 1.76 0 0 0 .788-.269c.234-.151.423-.354.55-.591.27-.866.376-1.77.314-2.67v-9.697c0-1.225-.453-1.912-1.376-2.049l-.6-.091c-.266-.046-.403-.137-.403-.284 0-.146.147-.238.432-.238.07 0 .364 0 .885.046h1.13c.453 0 1.052 0 1.967-.082.678 0 1.268-.064 1.789-.064a7.776 7.776 0 0 1 4.394 1.024 3.58 3.58 0 0 1 1.153 1.345 3.31 3.31 0 0 1 .331 1.692c.02 1.793-1.052 3.156-3.116 4.126v.045Zm-3.716-.265h1.425a3.86 3.86 0 0 0 1.398-.177c.45-.145.863-.37 1.217-.664.331-.303.59-.667.759-1.07a2.86 2.86 0 0 0 .224-1.263 3.437 3.437 0 0 0-.312-1.54 3.676 3.676 0 0 0-.975-1.277 4.894 4.894 0 0 0-3.294-1.098 1.675 1.675 0 0 0-.983.229 1.063 1.063 0 0 0-.237.388 1.014 1.014 0 0 0-.048.444v5.187c0 .365.05.603.158.695.206.096.44.13.668.1v.046Zm28.203-.457h7.471a1.87 1.87 0 0 0 .717-.092.514.514 0 0 0 .148-.43v-4.024a3.143 3.143 0 0 0-.344-1.72 1.77 1.77 0 0 0-.537-.466 1.902 1.902 0 0 0-.692-.23c-.256-.045-.374-.136-.364-.283.01-.146.108-.201.315-.201.206 0 .462 0 .865.064a18.01 18.01 0 0 0 1.769.082c.634.01 1.267-.014 1.897-.073l.472-.046c.207 0 .305.073.305.229 0 .155-.098.192-.305.238l-.521.1a1.017 1.017 0 0 0-.396.194.915.915 0 0 0-.262.337c-.182.321-.274.68-.266 1.043V99.55a2.925 2.925 0 0 0 .384 1.747c.185.187.41.335.661.436.25.1.521.152.793.15.266 0 .404.11.404.238s-.099.283-.354.283a5.205 5.205 0 0 1-.649-.064 11.66 11.66 0 0 0-1.268 0h-2.576l-.875.064c-.206 0-.304-.073-.304-.238 0-.164.157-.228.442-.274.885-.137 1.327-.814 1.327-2.012v-4.794a1.125 1.125 0 0 0-.108-.649 1.892 1.892 0 0 0-.767-.091h-7.461a1.802 1.802 0 0 0-.904.137c-.118.091-.177.32-.177.686v4.336c-.061.6.087 1.203.422 1.719.412.386.97.606 1.554.613.314 0 .472.128.481.311.01.183-.108.238-.363.238a4.772 4.772 0 0 1-.62-.064 16.46 16.46 0 0 0-1.523-.046h-2.694c-.442 0-.708.046-.806.046-.098 0-.305-.064-.305-.21 0-.147.099-.238.325-.284l.639-.146c.191-.052.363-.152.497-.289a.97.97 0 0 0 .26-.489c.16-.762.226-1.538.196-2.314V88.465a2.209 2.209 0 0 0-.413-1.491 2.495 2.495 0 0 0-1.494-.613c-.246 0-.373-.119-.373-.256s.108-.238.334-.229l.757.064c.77.079 1.545.115 2.32.11a16.003 16.003 0 0 0 1.681-.092 3.49 3.49 0 0 1 .531-.045c.245 0 .373.073.373.247s-.118.21-.344.265c-.438.064-.84.264-1.14.567a2.065 2.065 0 0 0-.295 1.253v4.208c-.04.276.011.557.147.805.317.133.669.178 1.013.128v.046Zm28.311-7.602a9.596 9.596 0 0 1 3.5.53 9.114 9.114 0 0 1 3.007 1.748 7.755 7.755 0 0 1 1.937 2.667 7.286 7.286 0 0 1 .609 3.169 7.918 7.918 0 0 1-.601 3.34 8.405 8.405 0 0 1-1.965 2.853 8.872 8.872 0 0 1-3.001 1.845 9.377 9.377 0 0 1-3.545.57 9.634 9.634 0 0 1-3.561-.526 9.153 9.153 0 0 1-3.055-1.779 8.094 8.094 0 0 1-1.949-2.786 7.6 7.6 0 0 1-.587-3.28 8.335 8.335 0 0 1 .668-3.219 7.27 7.27 0 0 1 1.859-2.74 7.969 7.969 0 0 1 2.948-1.724 10.74 10.74 0 0 1 3.736-.713v.045Zm-.816.76a6.292 6.292 0 0 0-2.557.424 5.913 5.913 0 0 0-2.113 1.405c-1.215 1.404-1.832 3.176-1.73 4.976-.071 2.19.715 4.329 2.212 6.02a6.754 6.754 0 0 0 2.406 1.813 7.261 7.261 0 0 0 3.02.638 6.663 6.663 0 0 0 2.668-.492 6.225 6.225 0 0 0 2.188-1.502c1.307-1.403 1.992-3.214 1.917-5.068.072-2.16-.752-4.263-2.3-5.873a7.387 7.387 0 0 0-2.571-1.783 7.878 7.878 0 0 0-3.14-.604v.046Zm28.576.786h-3.559a1.115 1.115 0 0 0-.698.147c-.13.21-.182.454-.147.695v12.019c-.001.419.171.822.48 1.127a1.82 1.82 0 0 0 1.181.511c.295.042.443.134.443.274 0 .165-.118.256-.354.256a5.856 5.856 0 0 1-.62-.073 9.854 9.854 0 0 0-1.14 0h-1.917a8.331 8.331 0 0 0-.894 0l-.856.073c-.255 0-.373-.091-.373-.256s.138-.21.413-.238c.49-.014.957-.193 1.317-.503.272-.41.393-.892.344-1.372V87.989a.77.77 0 0 0-.128-.54 1.042 1.042 0 0 0-.619-.118h-3.352a2.354 2.354 0 0 0-1.484.384 2.608 2.608 0 0 0-.718 1.445c-.079.302-.197.457-.344.448-.148-.009-.236-.119-.236-.32.026-.308.078-.614.157-.915.113-.462.176-.934.187-1.408a1.253 1.253 0 0 1 .138-.705.684.684 0 0 1 .258-.146.73.73 0 0 1 .302-.028h13.634c.472 0 .747.046.846.147.136.258.187.547.147.832-.008.34.012.679.059 1.016 0 .265.069.457.079.576.01.119-.079.366-.266.375-.186.01-.255-.11-.304-.366a1.684 1.684 0 0 0-.531-1.088 2.734 2.734 0 0 0-1.445-.248v.046Zm12.238 5.36c-.028.222.01.447.108.65.069.082.295.119.659.119h1.966a11.61 11.61 0 0 0 2.104-.146c.323-.033.63-.15.884-.339.201-.302.326-.643.364-.997 0-.192.157-.283.325-.283.167 0 .245.118.245.32v.265c-.059.76-.098 1.454-.098 2.085 0 .476 0 .915.079 1.428v.338c0 .073-.079.293-.236.293a.32.32 0 0 1-.118-.011.298.298 0 0 1-.176-.14.266.266 0 0 1-.031-.105l-.078-.33a1.505 1.505 0 0 0-.184-.595 1.601 1.601 0 0 0-.416-.484 3.212 3.212 0 0 0-1.553-.275h-2.802a2.1 2.1 0 0 0-.825.11.495.495 0 0 0-.207.476v4.729c0 .668.128 1.089.384 1.253a4.647 4.647 0 0 0 1.966.247c3.316 0 5.445-.695 6.389-2.085a.48.48 0 0 1 .285-.22c.148 0 .226.1.226.311a3.007 3.007 0 0 1-.924 1.83 3.422 3.422 0 0 1-1.242.948 3.696 3.696 0 0 1-1.569.323c-.246 0-.57 0-.983-.046-1.612-.137-2.949-.21-3.991-.21a24.323 24.323 0 0 0-3.136.137 4.052 4.052 0 0 1-.659.092c-.275 0-.403-.092-.403-.257 0-.164.109-.228.325-.283l.481-.128c.61-.156.915-.714.915-1.656V89.316a4.58 4.58 0 0 0-.394-2.278 1.727 1.727 0 0 0-.696-.474 1.853 1.853 0 0 0-.857-.102c-.245 0-.373-.074-.373-.22 0-.146.196-.33.57-.33.286.005.571.024.855.056 1.447.138 2.901.203 4.355.192.983 0 1.966 0 2.742-.046l1.79-.082c.501 0 .815 0 .914-.055.169-.024.34-.039.511-.046.275 0 .423.11.423.338.007.092.007.183 0 .275 0 .11-.059.43-.109.915l-.049.695a6.242 6.242 0 0 1-.118.86.288.288 0 0 1-.112.133.319.319 0 0 1-.173.05c-.157 0-.245-.11-.245-.357v-.311c0-.245-.05-.487-.148-.714a1.273 1.273 0 0 0-.397-.469 1.4 1.4 0 0 0-.586-.244 14.185 14.185 0 0 0-2.693-.174h-1.966c-.34-.033-.683.03-.983.183a1.007 1.007 0 0 0-.335.832v4.794Zm19.661 6.321v.403a2.828 2.828 0 0 0 .285 1.683 3.86 3.86 0 0 0 1.907.256c1.39.025 2.776-.151 4.109-.521a3.669 3.669 0 0 0 2.231-1.39c.118-.22.236-.32.354-.32s.197.081.187.237a3.044 3.044 0 0 1-.826 1.71 4.224 4.224 0 0 1-1.599 1.036 4.498 4.498 0 0 1-1.93.254c-.275 0-.59 0-.983-.045l-1.366-.083a32.233 32.233 0 0 0-2.546-.091 20.759 20.759 0 0 0-2.615.137 7.305 7.305 0 0 1-.708.082c-.216 0-.314-.064-.314-.21s.108-.229.344-.284c.473-.101.89-.361 1.169-.731a3.156 3.156 0 0 0 .305-1.601V88.447c0-1.052-.462-1.656-1.376-1.83l-.56-.11c-.217 0-.305-.119-.305-.238s.137-.265.423-.265c.285 0 .462 0 .796.046.58.046 1.219.073 1.966.073.747 0 1.474 0 2.113-.064h.541c.206 0 .305.055.305.174s-.118.283-.364.338l-.442.092c-.767.174-1.141.915-1.141 2.113l.04 10.281Z" fill="#83724C"/><path fill-rule="evenodd" clip-rule="evenodd" d="M59.621 127.99v3.906c-.063.561.06 1.126.354 1.619a2.953 2.953 0 0 0 1.632.586c.216 0 .334.109.344.219.01.11-.089.211-.275.201H57.33l-.687.046c-.256 0-.384-.082-.384-.256s.118-.174.334-.201c.21-.008.414-.07.588-.18.174-.11.31-.263.396-.442a4.592 4.592 0 0 0 .285-1.903v-9.111a3.428 3.428 0 0 0-.266-1.6 1.366 1.366 0 0 0-.42-.403 1.465 1.465 0 0 0-.563-.201l-.56-.101c-.197-.045-.295-.119-.295-.228 0-.11.098-.22.305-.22.137-.012.275-.012.412 0 .394 0 .983.055 1.839.055h1.877l.55-.046c.188 0 .276.055.276.201 0 .147-.088.183-.275.257a1.724 1.724 0 0 0-.914.649 3.7 3.7 0 0 0-.187 1.464v4.152c0 .156 0 .229.098.229l.187-.119.177-.128 4.915-4.107c.757-.622 1.13-1.125 1.13-1.5s-.265-.54-.825-.631c-.344-.055-.521-.147-.521-.275 0-.128.118-.219.353-.219a2.36 2.36 0 0 1 .315 0h2.988c.328.022.656.022.984 0h.353c.207 0 .315.064.335.21.02.147-.177.211-.55.293-.689.165-2 1.061-3.933 2.689l-3.932 3.302a.69.69 0 0 0-.256.339c0 .11.079.256.276.448l5.976 5.809a4.005 4.005 0 0 0 2.084 1.143l.502.091c.177 0 .265.11.265.211 0 .1-.118.265-.364.247a1.68 1.68 0 0 1-.265 0 9.48 9.48 0 0 0-.983 0h-1.513a.93.93 0 0 1-.67-.293l-.196-.201-6.242-5.937-.226-.228a.4.4 0 0 0-.275-.119c-.138.024-.207.119-.207.283Zm14.48-.622c.885-1.29 1.7-1.939 2.448-1.939.347.039.673.176.933.393.394.266.59.476.61.641a1.264 1.264 0 0 1-.373.585c-.246.284-.433.439-.531.439a1.732 1.732 0 0 1-.511-.256 1.735 1.735 0 0 0-.934-.32 1.643 1.643 0 0 0-.64.12 1.547 1.547 0 0 0-.53.355c-.158.155-.28.338-.361.537a1.51 1.51 0 0 0-.111.625v3.805a2.4 2.4 0 0 0 .255 1.272 1.1 1.1 0 0 0 .397.317c.157.074.331.113.508.113l.59.046c.246 0 .373.082.373.21s-.108.21-.324.21l-.54-.045a5.676 5.676 0 0 0-.64 0h-1.337a9.943 9.943 0 0 0-1.268.055l-.413.054c-.206 0-.304-.064-.304-.21s.108-.201.354-.247a.882.882 0 0 0 .365-.126.81.81 0 0 0 .264-.267c.128-.4.178-.819.147-1.235v-4.574c0-.814-.423-1.226-1.258-1.226h-.393c-.177 0-.256-.073-.256-.21a.19.19 0 0 1 .046-.124.213.213 0 0 1 .121-.068h.246a6.408 6.408 0 0 0 2.546-.915.714.714 0 0 1 .265-.073c.177 0 .266.119.266.357v1.829l-.01-.128Zm11.796 2.324v-1.318a2.31 2.31 0 0 0-.491-1.692 2.4 2.4 0 0 0-.822-.497 2.52 2.52 0 0 0-.968-.143c-.983 0-1.513.393-1.513 1.189.007.274.057.545.147.805.035.111.062.224.079.338 0 .138-.069.202-.226.202a2.227 2.227 0 0 1-.983-.22c-.295-.137-.443-.302-.443-.466a2.15 2.15 0 0 1 .757-1.427 3.56 3.56 0 0 1 1.25-.795 3.8 3.8 0 0 1 1.493-.239 3.955 3.955 0 0 1 2.418.64c.29.219.52.499.67.818.15.318.218.665.195 1.012v4.18a2.85 2.85 0 0 0 .256 1.409c.086.14.213.254.366.33a.984.984 0 0 0 .499.1h.275a1.44 1.44 0 0 1 .275-.055c.138 0 .197.046.187.146-.01.101-.187.265-.54.393a3.043 3.043 0 0 1-.984.193 2.217 2.217 0 0 1-1.014-.314 2.006 2.006 0 0 1-.716-.738 5.457 5.457 0 0 1-3.086 1.17 2.588 2.588 0 0 1-1.71-.539 1.898 1.898 0 0 1-.49-.663 1.777 1.777 0 0 1-.15-.792 2.01 2.01 0 0 1 .317-1.109c.214-.336.522-.61.892-.793a12.676 12.676 0 0 1 4.06-1.125Zm0 .42a6.233 6.233 0 0 0-2.762.75c-.292.157-.535.38-.707.649a1.74 1.74 0 0 0-.276.888c-.02.215.012.431.091.634.08.202.206.386.37.538.163.153.361.27.579.344.217.074.45.103.68.085.297.008.593-.039.87-.14a2.25 2.25 0 0 0 .742-.445c.297-.329.442-.753.403-1.18l.01-2.123Zm9.3-4.683a4.907 4.907 0 0 1 1.562.22l.502.164c.206.073.314.174.314.329v.888c.01.134.01.268 0 .402 0 .275-.078.421-.255.43-.177.009-.167-.082-.246-.283a2.2 2.2 0 0 0-.88-1.195 2.48 2.48 0 0 0-1.49-.424 1.73 1.73 0 0 0-1.12.356 1.25 1.25 0 0 0-.318.416 1.167 1.167 0 0 0 0 .998c.074.158.182.299.318.416.608.386 1.27.694 1.966.914a5.425 5.425 0 0 1 1.966 1.098c.39.438.59.996.56 1.564.004.39-.082.776-.251 1.133a2.79 2.79 0 0 1-.731.935 3.262 3.262 0 0 1-1.049.641c-.391.147-.81.221-1.232.218a5.19 5.19 0 0 1-2.074-.503 1.114 1.114 0 0 0-.334-.119h-.295a.277.277 0 0 1-.266-.162.24.24 0 0 1-.02-.103v-2.14c0-.192.109-.293.246-.302.138-.009.227.1.286.329.11.681.43 1.317.924 1.83.214.211.473.378.761.492.288.113.597.17.91.166.505.018.997-.146 1.376-.457.175-.149.313-.332.404-.536.092-.204.135-.423.127-.644a1.651 1.651 0 0 0-.365-1.002 1.857 1.857 0 0 0-.923-.617l-.983-.412a5.862 5.862 0 0 1-1.966-1.143 2.048 2.048 0 0 1-.57-1.446 2.062 2.062 0 0 1 .228-.959c.153-.299.378-.563.657-.769a3.35 3.35 0 0 1 2.26-.723Zm8.788 1.692a4.146 4.146 0 0 1 1.386-1.182 4.478 4.478 0 0 1 1.799-.51 3.57 3.57 0 0 1 1.644.351c.507.245.939.606 1.255 1.049.56.879.818 1.898.738 2.918v3.393a.893.893 0 0 0 .32.589c.182.152.418.236.663.234l.481.064c.207 0 .315.101.315.211 0 .11-.108.238-.374.238a4.26 4.26 0 0 1-.452 0 14.24 14.24 0 0 0-1.386-.046h-2.064a.17.17 0 0 1-.089-.165.208.208 0 0 1 .063-.137.23.23 0 0 1 .144-.064l.344-.082c.314-.073.462-.33.462-.769v-3.659a3.267 3.267 0 0 0-.737-2.286 2.573 2.573 0 0 0-.942-.628 2.737 2.737 0 0 0-1.142-.177 2.841 2.841 0 0 0-1.691.521c-.217.13-.397.307-.526.516a1.413 1.413 0 0 0-.211.682v4.912c0 .604.56.915 1.592.988.256 0 .383.101.383.229s-.088.192-.265.192a5.067 5.067 0 0 1-.59-.064h-3.716c-.147 0-.216-.064-.206-.174.01-.11.088-.155.226-.201.307-.082.581-.248.786-.476.156-.282.224-.598.197-.914v-4.821a1.888 1.888 0 0 0-.197-1.024.805.805 0 0 0-.33-.227.879.879 0 0 0-.407-.048h-.491a.336.336 0 0 1-.187-.046.158.158 0 0 1-.073-.059.143.143 0 0 1-.025-.087c0-.101.098-.165.295-.21a6.336 6.336 0 0 0 1.474-.43l.61-.275.452-.21a.656.656 0 0 1 .275-.082c.138 0 .197.1.187.311-.01.21 0 .247 0 .402l.01 1.253Zm15.502-1.692a5.236 5.236 0 0 1 1.915.339 4.96 4.96 0 0 1 1.624 1.006c.47.413.844.912 1.098 1.466.254.554.382 1.151.376 1.753a4.203 4.203 0 0 1-.348 1.817 4.471 4.471 0 0 1-1.107 1.531 5.06 5.06 0 0 1-1.692 1.014 5.363 5.363 0 0 1-1.984.313 5.244 5.244 0 0 1-1.935-.305 4.98 4.98 0 0 1-1.653-.985c-.918-.89-1.424-2.081-1.407-3.314.016-1.234.553-2.413 1.495-3.281a5.054 5.054 0 0 1 1.661-1.019 5.353 5.353 0 0 1 1.957-.335Zm-.305.421a3.006 3.006 0 0 0-1.276.241c-.399.171-.75.427-1.024.747a3.74 3.74 0 0 0-.885 2.588 5.298 5.298 0 0 0 1.091 3.412c.3.42.706.765 1.182 1.004a3.495 3.495 0 0 0 1.551.368c.429.018.857-.063 1.245-.233.389-.171.727-.426.986-.745a3.903 3.903 0 0 0 .826-2.635 5.382 5.382 0 0 0-1.032-3.421 3.066 3.066 0 0 0-1.132-.971 3.325 3.325 0 0 0-1.493-.355h-.039Zm16.013 7.226a9.144 9.144 0 0 1-1.897 1.262 4.074 4.074 0 0 1-1.642.33 3.946 3.946 0 0 1-1.63-.316 3.693 3.693 0 0 1-1.319-.947 4.382 4.382 0 0 1-1.169-3.11c-.034-1.277.466-2.517 1.395-3.457a4.53 4.53 0 0 1 1.56-1.055 4.819 4.819 0 0 1 1.891-.354 5.734 5.734 0 0 1 2.831.796v-4.208c0-1.354-.383-2.003-1.17-1.967h-.403a.404.404 0 0 1-.147 0 .185.185 0 0 1-.09-.059.165.165 0 0 1-.038-.096c0-.147.098-.229.334-.256a7.339 7.339 0 0 0 2.684-.988.496.496 0 0 1 .216-.073c.118 0 .177.082.177.237v13.721c0 .815.265 1.208.796 1.208h.777a.181.181 0 0 1 .095.067.166.166 0 0 1 .033.107c0 .146-.138.247-.413.274l-.6.064-.639.092a4.17 4.17 0 0 0-.983.228.866.866 0 0 1-.344.119c-.177 0-.265-.174-.265-.53l-.04-1.089Zm0-1.29v-3.521a1.772 1.772 0 0 0-.095-.753 1.85 1.85 0 0 0-.406-.656 3.788 3.788 0 0 0-1.238-.756 3.974 3.974 0 0 0-1.456-.25 2.897 2.897 0 0 0-1.246.239c-.39.17-.73.424-.995.74a3.774 3.774 0 0 0-.845 2.579 4.477 4.477 0 0 0 1.111 3.037c.302.389.697.707 1.154.93.458.222.964.342 1.48.351.66.032 1.31-.16 1.828-.54.231-.164.417-.376.544-.619a1.63 1.63 0 0 0 .184-.781h-.02Zm11.128-2.094v-1.318a2.265 2.265 0 0 0-.492-1.692 2.395 2.395 0 0 0-.821-.497 2.52 2.52 0 0 0-.968-.143c-.983 0-1.513.393-1.513 1.189.006.274.059.546.157.805.037.11.06.223.069.338 0 .138-.069.202-.226.202-.342 0-.679-.075-.983-.22-.295-.137-.443-.302-.443-.466a2.123 2.123 0 0 1 .767-1.427 3.567 3.567 0 0 1 1.245-.795 3.78 3.78 0 0 1 1.488-.239 4 4 0 0 1 2.428.64c.287.221.514.502.662.82.149.318.215.664.193 1.01v4.18c-.036.482.051.965.256 1.409a.956.956 0 0 0 .375.325c.153.075.326.111.499.105h.276l.265-.055c.138 0 .197.046.187.146-.01.101-.187.265-.541.393a2.983 2.983 0 0 1-.983.193 2.229 2.229 0 0 1-.996-.323 2.022 2.022 0 0 1-.704-.729 5.459 5.459 0 0 1-3.077 1.17 2.566 2.566 0 0 1-1.711-.539 1.844 1.844 0 0 1-.496-.66 1.729 1.729 0 0 1-.143-.795 2.017 2.017 0 0 1 .31-1.117 2.22 2.22 0 0 1 .89-.804 12.776 12.776 0 0 1 4.069-1.106h-.039Zm0 .42a6.103 6.103 0 0 0-2.752.75c-.292.157-.535.38-.708.649-.172.27-.267.575-.276.888-.016.214.018.429.099.63s.207.383.37.535c.163.152.359.269.575.345.216.075.447.106.677.091.297.008.593-.039.87-.14s.529-.252.742-.445c.149-.162.262-.349.331-.552a1.46 1.46 0 0 0 .072-.628v-2.123Zm9.034-2.744c.894-1.29 1.71-1.939 2.457-1.939.364.032.708.169.983.393.394.266.59.476.6.641.01.164-.108.301-.364.585-.255.284-.432.439-.54.439a1.763 1.763 0 0 1-.502-.256 1.775 1.775 0 0 0-.983-.32 1.619 1.619 0 0 0-.635.12 1.524 1.524 0 0 0-.525.355 1.565 1.565 0 0 0-.364.536c-.081.2-.118.413-.107.626v3.805c-.034.438.054.876.255 1.272.101.133.235.242.391.317.156.074.328.113.504.113l.599.046c.246 0 .364.082.364.21s-.098.21-.315.21l-.54-.045a5.855 5.855 0 0 0-.649 0h-1.327a9.76 9.76 0 0 0-1.268.055l-.413.054c-.206 0-.315-.064-.315-.21s.118-.201.354-.247a.905.905 0 0 0 .37-.126.827.827 0 0 0 .269-.267c.129-.4.179-.819.148-1.235v-4.574c0-.814-.423-1.226-1.268-1.226h-.384c-.177 0-.265-.073-.265-.21a.195.195 0 0 1 .048-.123.22.22 0 0 1 .119-.069h.256a6.45 6.45 0 0 0 2.546-.915.604.604 0 0 1 .265-.073c.167 0 .256.11.256.357v1.829l-.02-.128Z" fill="#83724C"/><path fill-rule="evenodd" clip-rule="evenodd" d="m124.215 142.37.973 2.799h3.166l-2.566 1.72.983 2.799-2.556-1.729-2.556 1.729.983-2.799-2.565-1.72h3.165l.973-2.799Z" fill="#83724C"/><path fill-rule="evenodd" clip-rule="evenodd" d="m90.871 142.37.973 2.799h3.166l-2.566 1.72.983 2.799-2.556-1.729-2.556 1.729.983-2.799-2.565-1.72h3.165l.973-2.799Z" fill="#83724C"/><path fill-rule="evenodd" clip-rule="evenodd" d="m140.779 142.278.973 2.799h3.165l-2.565 1.72.983 2.808-2.556-1.738-2.556 1.738.983-2.808-2.566-1.72h3.166l.973-2.799Z" fill="#83724C"/><path fill-rule="evenodd" clip-rule="evenodd" d="m107.69 142.361.964 2.808 3.165-.009-2.556 1.729.983 2.799-2.556-1.738-2.565 1.738.983-2.799-2.556-1.729 3.165.009.973-2.808Z" fill="#83724C"/><path fill-rule="evenodd" clip-rule="evenodd" d="m74.347 142.278.973 2.799h3.165l-2.566 1.72.984 2.808-2.556-1.738-2.556 1.738.983-2.808-2.566-1.72h3.165l.974-2.799Z" fill="#83724C"/><path fill-rule="evenodd" clip-rule="evenodd" d="M110.885 64.8h-6.615a.6.6 0 0 0-.218.094.554.554 0 0 0-.159.167.511.511 0 0 0-.046.435l3.067 5.415c.128.229.226.485.521.485h.256c.285 0 .393-.238.54-.466l3.107-5.489a.496.496 0 0 0-.076-.412.545.545 0 0 0-.162-.15.589.589 0 0 0-.215-.078Z" fill="#83724C"/><path fill-rule="evenodd" clip-rule="evenodd" d="m113.687 29.456 4.61-6.852a.934.934 0 0 1 .347-.383 1.036 1.036 0 0 1 1.035-.038c.159.084.29.208.378.357l2.074 2.671.718.915 2.093 2.68a.89.89 0 0 1 .255.447.853.853 0 0 1-.039.504.916.916 0 0 1-.32.408c-.146.105-.321.17-.505.187l-8.424 1.958a1.56 1.56 0 0 1-.759-.016 1.477 1.477 0 0 1-.647-.369l-.079-.1-.708-.915-.068-.082a1.266 1.266 0 0 1 .039-1.372Z" fill="#83724C"/><path fill-rule="evenodd" clip-rule="evenodd" d="m101.468 29.456-4.59-6.852a.935.935 0 0 0-.347-.383 1.042 1.042 0 0 0-1.035-.038.95.95 0 0 0-.378.357l-2.802 3.595-2.084 2.662a.897.897 0 0 0-.255.447.854.854 0 0 0 .04.504.921.921 0 0 0 .32.408c.146.105.32.17.505.187l8.424 1.957c.25.058.512.053.759-.015.247-.067.47-.195.647-.369l.069-.091.707-.915.079-.1a1.261 1.261 0 0 0-.059-1.354Z" fill="#83724C"/><path fill-rule="evenodd" clip-rule="evenodd" d="m115.908 39.225 8.425 1.948c.184.017.359.082.505.188a.916.916 0 0 1 .32.408.853.853 0 0 1 .039.504.89.89 0 0 1-.255.446l-2.093 2.68-.718.915-2.074 2.671a.954.954 0 0 1-.378.357 1.039 1.039 0 0 1-1.035-.037.934.934 0 0 1-.347-.384l-4.61-6.851a1.255 1.255 0 0 1-.2-.677c0-.238.069-.472.2-.677l.069-.092.501-.64.206-.274.079-.1c.171-.171.388-.296.628-.364.24-.067.495-.074.738-.021Z" fill="#83724C"/><path fill-rule="evenodd" clip-rule="evenodd" d="m106.609 27.315.61-8.059a.86.86 0 0 0-.037-.501.921.921 0 0 0-.317-.408 1.045 1.045 0 0 0-1.032-.106l-7.904 2.397a1.01 1.01 0 0 0-.483.22.91.91 0 0 0-.286.424.853.853 0 0 0-.003.502.906.906 0 0 0 .28.427l5.584 6.184c.164.185.378.326.62.408.242.082.503.102.757.058h.118l.285-.082.855-.266h.137a1.39 1.39 0 0 0 .597-.488c.144-.212.22-.458.219-.71Z" fill="#83724C"/><path fill-rule="evenodd" clip-rule="evenodd" d="m112.134 43.122 5.573 6.183a.902.902 0 0 1 .289.427c.052.165.052.34.002.505a.903.903 0 0 1-.286.428 1.012 1.012 0 0 1-.486.223l-3.382 1.015-1.15.348-3.372 1.024a1.045 1.045 0 0 1-1.032-.106.92.92 0 0 1-.317-.408.86.86 0 0 1-.037-.501l.61-8.059a1.25 1.25 0 0 1 .24-.668c.144-.198.343-.356.576-.457h.118l.757-.22.383-.128h.138c.246-.053.503-.044.744.025.242.069.46.196.632.369Z" fill="#83724C"/><path fill-rule="evenodd" clip-rule="evenodd" d="m112.134 28.404 5.573-6.193a.902.902 0 0 0 .289-.427.85.85 0 0 0 .002-.504.903.903 0 0 0-.286-.429 1.01 1.01 0 0 0-.486-.223l-4.532-1.362-3.372-.98a1.045 1.045 0 0 0-1.032.107.92.92 0 0 0-.317.408.86.86 0 0 0-.037.501l.61 8.059c.013.239.096.47.24.668.144.198.343.356.576.457h.118l.295.082.845.266h.138c.249.046.508.031.749-.044.242-.076.458-.209.627-.386Z" fill="#83724C"/><path fill-rule="evenodd" clip-rule="evenodd" d="m106.619 44.201.6 8.059a.852.852 0 0 1-.038.501.918.918 0 0 1-.316.408 1.045 1.045 0 0 1-1.032.106l-3.392-1.024-1.14-.348-3.372-1.015a1.015 1.015 0 0 1-.49-.22.909.909 0 0 1-.29-.428.854.854 0 0 1 0-.506.909.909 0 0 1 .289-.429l5.583-6.183c.163-.186.377-.327.619-.41.243-.081.504-.101.757-.057h.118l.983.284.197.064h.138c.237.113.435.284.574.496.139.211.212.454.212.702Z" fill="#83724C"/><path fill-rule="evenodd" clip-rule="evenodd" d="m101.468 42.07-4.59 6.842a.935.935 0 0 1-.347.383 1.041 1.041 0 0 1-1.035.038.95.95 0 0 1-.378-.357l-2.094-2.68-.708-.915-2.084-2.67a.897.897 0 0 1-.255-.447.854.854 0 0 1 .04-.505.921.921 0 0 1 .32-.408c.146-.105.32-.17.505-.187l8.424-1.948c.249-.062.511-.06.759.007.247.066.471.193.647.368l.069.091.589.76.118.155.079.1a1.244 1.244 0 0 1-.059 1.373Z" fill="#83724C"/><path fill-rule="evenodd" clip-rule="evenodd" d="m116.538 37.496 8.06 3.028a1.046 1.046 0 0 0 1.031-.04.94.94 0 0 0 .345-.382.859.859 0 0 0 .079-.493V31.87a.859.859 0 0 0-.079-.493.94.94 0 0 0-.345-.38 1.046 1.046 0 0 0-1.031-.04l-8.06 3.026a1.45 1.45 0 0 0-.602.424 1.308 1.308 0 0 0-.293.647v1.372a1.3 1.3 0 0 0 .292.648c.157.188.365.333.603.422Z" fill="#83724C"/><path fill-rule="evenodd" clip-rule="evenodd" d="m98.647 37.496-8.051 3.028a1.043 1.043 0 0 1-1.03-.04.934.934 0 0 1-.346-.382.857.857 0 0 1-.079-.493V31.87a.857.857 0 0 1 .08-.493.934.934 0 0 1 .345-.38 1.043 1.043 0 0 1 1.03-.04l8.05 3.026c.24.087.45.232.607.42.158.189.257.414.288.65v1.373a1.26 1.26 0 0 1-.286.651 1.403 1.403 0 0 1-.608.42Z" fill="#83724C"/><path fill-rule="evenodd" clip-rule="evenodd" d="m123.222 10.448 5.358 3.613a.608.608 0 0 0 .448-.027.573.573 0 0 0 .18-.133.512.512 0 0 0 .109-.188l.983-6.055c0-.256.118-.522-.118-.677l-.177-.128c-.236-.156-.472 0-.737.091l-5.957 2.744a.531.531 0 0 0-.152.16.494.494 0 0 0 .063.6Z" fill="#83724C"/><path fill-rule="evenodd" clip-rule="evenodd" d="m86.536 57.437 5.358 3.66a.528.528 0 0 1 .135.413.514.514 0 0 1-.075.209.554.554 0 0 1-.159.164l-5.898 2.744c-.246.119-.491.265-.727.11l-.187-.128c-.226-.156-.157-.412-.128-.677l.934-6.11a.494.494 0 0 1 .095-.208.54.54 0 0 1 .18-.15.582.582 0 0 1 .472-.027Z" fill="#83724C"/><path fill-rule="evenodd" clip-rule="evenodd" d="m136.198 23.848 2.045 5.846c.042.064.097.12.163.164a.63.63 0 0 0 .682 0l4.591-4.39c.186-.183.422-.357.334-.613l-.069-.192c-.098-.257-.373-.275-.659-.339l-6.527-1.061c-.265-.055-.619.32-.56.585Z" fill="#83724C"/><path fill-rule="evenodd" clip-rule="evenodd" d="m76.863 41.795 2.035 5.855a.496.496 0 0 1-.145.41.571.571 0 0 1-.192.13.607.607 0 0 1-.233.045l-6.488-1.043c-.275-.045-.57-.055-.659-.31l-.069-.202c-.098-.247.128-.42.315-.622l4.62-4.427a.58.58 0 0 1 .448-.088c.077.016.15.046.213.09a.536.536 0 0 1 .155.162Z" fill="#83724C"/><path fill-rule="evenodd" clip-rule="evenodd" d="m138.262 41.795-2.064 5.855c-.089.256.275.63.58.585l6.478-1.043c.275 0 .57-.045.659-.302l.068-.2c.089-.257-.127-.422-.314-.623l-4.62-4.436a.589.589 0 0 0-.431-.073.576.576 0 0 0-.356.237Z" fill="#83724C"/><path fill-rule="evenodd" clip-rule="evenodd" d="m78.898 23.848-2.045 5.855a.546.546 0 0 1-.16.164.592.592 0 0 1-.459.085.59.59 0 0 1-.216-.094l-4.59-4.39c-.197-.183-.424-.348-.335-.604l.069-.201c.088-.257.373-.275.648-.339l6.547-1.052c.276-.064.63.32.541.576Z" fill="#83724C"/><path fill-rule="evenodd" clip-rule="evenodd" d="m128.599 57.446-5.357 3.66a.525.525 0 0 0-.136.413.53.53 0 0 0 .234.373l5.898 2.744c.246.11.492.265.728.1l.177-.118c.236-.156.167-.412.137-.677l-.934-6.11a.483.483 0 0 0-.094-.208.548.548 0 0 0-.414-.213.588.588 0 0 0-.239.036Z" fill="#83724C"/><path fill-rule="evenodd" clip-rule="evenodd" d="m91.903 10.457-5.347 3.613a.617.617 0 0 1-.658-.138.532.532 0 0 1-.119-.191l-.983-6.056c0-.265-.118-.521.118-.686l.177-.119c.236-.165.472 0 .737.092l5.957 2.744c.061.04.113.092.152.152a.499.499 0 0 1 .064.402.508.508 0 0 1-.098.187Z" fill="#83724C"/><path fill-rule="evenodd" clip-rule="evenodd" d="M110.886 6.715h-6.616a.601.601 0 0 1-.218-.093.556.556 0 0 1-.159-.167.511.511 0 0 1-.046-.435l3.067-5.415c.128-.229.226-.485.521-.485h.256c.285 0 .393.247.54.476l3.107 5.488a.484.484 0 0 1-.08.407.539.539 0 0 1-.161.148.586.586 0 0 1-.211.076Z" fill="#83724C"/><path fill-rule="evenodd" clip-rule="evenodd" d="m122.603 11.225 5.416 3.659c.236.165.108.76-.196.915l-6.793 3.778c-.295.164-.58.365-.816.2l-.187-.118c-.235-.165-.127-.467-.068-.778l1.769-7.244c.059-.284.629-.577.875-.412Z" fill="#83724C"/><path fill-rule="evenodd" clip-rule="evenodd" d="m87.146 56.632 5.426 3.66c.236.164.806-.138.885-.467l1.769-7.172c.069-.31.197-.622-.05-.786L95 51.738c-.236-.155-.521 0-.816.183l-6.881 3.806c-.256.146-.403.74-.157.905Z" fill="#83724C"/><path fill-rule="evenodd" clip-rule="evenodd" d="m135.215 24.123 2.064 5.936c.089.257-.393.668-.757.64l-7.864-.658c-.334 0-.688 0-.786-.274l-.069-.201c-.088-.257.187-.449.433-.668l6.006-4.894c.246-.229.894-.137.973.119Z" fill="#83724C"/><path fill-rule="evenodd" clip-rule="evenodd" d="m77.856 41.466 2.084 5.928c.088.265.737.338.983.118l5.967-4.848c.255-.2.54-.393.452-.65l-.069-.2c-.088-.266-.432-.266-.776-.302l-7.943-.677c-.354-.046-.777.375-.698.631Z" fill="#83724C"/><path fill-rule="evenodd" clip-rule="evenodd" d="m137.299 41.466-2.084 5.928c-.098.265-.747.338-.983.119l-5.967-4.849c-.256-.2-.55-.393-.462-.65l.069-.2c.088-.266.432-.266.776-.302l7.953-.677c.314-.046.786.366.698.631Z" fill="#83724C"/><path fill-rule="evenodd" clip-rule="evenodd" d="m79.93 24.123-2.064 5.936c-.099.257.383.668.747.64l7.864-.658c.334 0 .698 0 .786-.274l.07-.201c.088-.257-.188-.449-.433-.668l-6.007-4.894c-.226-.229-.874-.137-.963.119Z" fill="#83724C"/><path fill-rule="evenodd" clip-rule="evenodd" d="m128.019 56.632-5.426 3.66c-.246.155-.816-.138-.895-.477l-1.769-7.171c-.069-.311-.187-.622.049-.787l.177-.128c.246-.155.521 0 .826.183l6.881 3.806c.275.155.393.75.157.914Z" fill="#83724C"/><path fill-rule="evenodd" clip-rule="evenodd" d="m92.552 11.225-5.416 3.659c-.236.165-.108.76.206.915l6.793 3.778c.285.164.57.365.816.2l.177-.118c.236-.165.127-.467.069-.778l-1.76-7.244c-.069-.284-.64-.577-.885-.412Z" fill="#83724C"/><path fill-rule="evenodd" clip-rule="evenodd" d="M110.925 63.822h-6.695c-.294 0-.58-.558-.432-.869l3.106-6.769c.138-.293.236-.613.531-.613h.256c.295 0 .403.302.55.595l3.146 6.824c.118.283-.167.832-.462.832Z" fill="#83724C"/><path fill-rule="evenodd" clip-rule="evenodd" d="M110.925 7.694h-6.695c-.295 0-.57.558-.432.87l3.106 6.768c.138.293.236.613.531.613h.256c.294 0 .403-.31.55-.595l3.146-6.823c.118-.302-.167-.833-.462-.833Z" fill="#83724C"/><path fill-rule="evenodd" clip-rule="evenodd" d="m85.514 18.04 8.05 2.433c1.102.33.984 1.107.61 1.537l-1.809 2.314-2.978 3.823a.95.95 0 0 1-.378.358 1.043 1.043 0 0 1-1.035-.038.936.936 0 0 1-.347-.383l-4.974-6.404a1.208 1.208 0 0 1-.213-.68c0-.241.074-.478.213-.682l1.337-1.71.167-.21c.17-.17.386-.293.625-.356s.492-.063.732-.001Z" fill="#83724C"/><path fill-rule="evenodd" clip-rule="evenodd" d="m132.502 49.808-4.974-6.403a.938.938 0 0 0-.349-.381 1.038 1.038 0 0 0-1.035-.032.948.948 0 0 0-.376.358l-1.809 2.379-2.949 3.814c-.373.43-.491 1.208.61 1.537l8.051 2.433c.249.067.514.066.763-.002s.472-.2.643-.382l.167-.21.285-.376.884-1.125.168-.21a1.206 1.206 0 0 0-.079-1.4Z" fill="#83724C"/><path fill-rule="evenodd" clip-rule="evenodd" d="m100.918 9.35 4.983 6.403c.679.87.089 1.436-.481 1.582l-2.949.915-1.888.567-2.949.915c-.55.192-1.386.055-1.386-1.015V10.84c.007-.24.087-.474.232-.673.144-.2.347-.356.584-.452l2.163-.659.275-.082c.25-.069.516-.07.766-.003.251.066.476.197.65.378Z" fill="#83724C"/><path fill-rule="evenodd" clip-rule="evenodd" d="M118.867 60.758v-7.876c0-1.07-.835-1.208-1.395-1.015l-2.949.914-4.817 1.455c-.57.146-1.16.713-.482 1.582l4.984 6.403c.155.192.367.337.61.418.243.081.505.095.756.04l.285-.074.61-.192 1.278-.384.275-.082c.253-.096.47-.26.62-.473.151-.212.23-.462.225-.716Z" fill="#83724C"/><path fill-rule="evenodd" clip-rule="evenodd" d="M118.867 10.759v7.875c0 1.07-.835 1.208-1.395 1.016l-2.949-.915-4.817-1.454c-.57-.147-1.16-.714-.482-1.583l4.984-6.403c.159-.188.371-.33.612-.412.242-.08.503-.096.754-.045l2.163.658.285.083c.252.095.467.258.618.469.15.21.23.458.227.71Z" fill="#83724C"/><path fill-rule="evenodd" clip-rule="evenodd" d="m100.918 62.194 4.983-6.403c.679-.87.089-1.436-.481-1.583l-2.949-.914-4.827-1.455c-.55-.192-1.386-.055-1.386 1.016v7.875c.007.24.087.474.232.674.144.199.347.356.584.451l.275.083.54.164 1.348.412.275.073c.25.07.516.069.766 0 .25-.07.472-.207.64-.393Z" fill="#83724C"/><path fill-rule="evenodd" clip-rule="evenodd" d="m132.502 21.708-4.974 6.403a.934.934 0 0 1-.347.384 1.04 1.04 0 0 1-1.035.038.955.955 0 0 1-.378-.358l-2.978-3.823-1.809-2.315c-.374-.43-.492-1.207.609-1.537l8.051-2.433c.249-.066.514-.066.763.002s.472.2.643.383l.167.21 1.17 1.5.167.21a1.198 1.198 0 0 1-.049 1.336Z" fill="#83724C"/><path fill-rule="evenodd" clip-rule="evenodd" d="m85.514 53.476 8.05-2.433c1.102-.33.984-1.107.61-1.536l-2.949-3.815-1.808-2.323a.95.95 0 0 0-.378-.358 1.041 1.041 0 0 0-1.035.038.934.934 0 0 0-.347.384l-4.974 6.403a1.198 1.198 0 0 0 0 1.363l.167.21 1.17 1.5.167.21c.166.165.377.285.61.348.234.063.482.066.717.01Z" fill="#83724C"/><path fill-rule="evenodd" clip-rule="evenodd" d="m136.621 38.027-8.051 2.442c-1.091.32-1.494-.366-1.465-.915v-7.546c0-.558.374-1.253 1.465-.915l8.051 2.433c.243.083.456.229.614.42.158.19.255.42.28.66v2.378a1.237 1.237 0 0 1-.29.638 1.38 1.38 0 0 1-.604.405Z" fill="#83724C"/><path fill-rule="evenodd" clip-rule="evenodd" d="m78.534 38.027 8.051 2.442c1.092.32 1.495-.366 1.465-.915v-7.546c0-.558-.373-1.253-1.465-.915l-8.05 2.433a1.375 1.375 0 0 0-.615.42c-.158.19-.255.42-.28.66v2.378c.032.233.132.454.29.638.157.184.367.324.604.405Z" fill="#83724C"/><path fill-rule="evenodd" clip-rule="evenodd" d="m107.583 28.614 2.251.677 2.261.686 2.791 3.567v4.428l-2.791 3.567-2.261.686-2.251.677-2.261-.677-2.261-.686-2.792-3.567v-4.428l2.792-3.567 2.261-.686 2.261-.677Z" fill="#83724C"/></svg>