<svg width="72" height="30" viewBox="0 0 72 30" fill="none" xmlns="http://www.w3.org/2000/svg">
<g clip-path="url(#clip0_2926_1538)">
<path fill-rule="evenodd" clip-rule="evenodd" d="M8.59946 19.2714H3.90694L2.75476 22.0592H0L6.37889 7.27563H6.50459L12.8625 22.0592H9.6469L8.59946 19.2714ZM7.66724 16.8955L6.30557 13.4319L4.88106 16.8955H7.66724Z" fill="white"/>
<path d="M21.242 10.2218C20.7408 10.1848 20.2402 10.3027 19.807 10.5597C19.6308 10.6887 19.4909 10.8617 19.4009 11.0616C19.3109 11.2615 19.274 11.4816 19.2938 11.7002C19.3063 11.9452 19.3814 12.1827 19.5117 12.3899C19.642 12.5971 19.8231 12.7669 20.0375 12.8829C20.6508 13.2915 21.3123 13.6214 22.0067 13.8649C22.6093 14.0795 23.1857 14.363 23.7245 14.7097C24.2117 15.0477 24.6135 15.4961 24.8976 16.0191C25.2304 16.6708 25.3892 17.3987 25.3585 18.131C25.3635 18.8745 25.1557 19.6038 24.76 20.2312C24.3643 20.8587 23.7974 21.3577 23.1274 21.6685C22.3143 22.0599 21.4198 22.2482 20.5193 22.2176C19.6741 22.2184 18.8336 22.0902 18.0264 21.8375C17.1925 21.5937 16.406 21.208 15.7011 20.697L16.979 18.5006C17.4873 18.8781 18.0486 19.1771 18.6444 19.3876C19.1851 19.6057 19.7592 19.7272 20.3412 19.7467C20.8788 19.7591 21.41 19.6279 21.881 19.3665C22.0916 19.2377 22.2615 19.0512 22.3709 18.8287C22.4804 18.6062 22.5248 18.3569 22.499 18.1099C22.499 17.3813 21.8181 16.7477 20.4041 16.2197C19.7115 15.9532 19.0363 15.6428 18.3825 15.2905C17.8264 14.984 17.3465 14.5544 16.979 14.0339C16.5651 13.4109 16.3596 12.671 16.3924 11.9219C16.3779 11.3714 16.4797 10.824 16.6909 10.316C16.9022 9.80811 17.2182 9.35127 17.6179 8.9758C18.496 8.17952 19.6316 7.73282 20.8126 7.7192C21.7021 7.70053 22.5891 7.82166 23.4417 8.07823C24.1835 8.33453 24.888 8.68966 25.5365 9.13419L24.4891 11.2461C23.5094 10.6348 22.3926 10.2825 21.242 10.2218Z" fill="white"/>
<path d="M38.5981 10.5596V7.80353H29.0664V10.5596H32.3659V22.0591H35.1625V10.5596H38.5981Z" fill="white"/>
<path d="M43.1649 10.5596V7.80353H52.8222V10.5596H43.1649Z" fill="white"/>
<path d="M43.1649 16.3146V13.5585H52.0681V16.2724L43.1649 16.3146Z" fill="white"/>
<path d="M45.951 19.398H53.0841V22.1013H43.1649V19.3558L45.951 19.398Z" fill="white"/>
<path fill-rule="evenodd" clip-rule="evenodd" d="M65.7582 22.0592H72.357V19.3137H70.105C70.557 18.6894 70.9103 17.9984 71.1525 17.2651C71.4831 16.29 71.599 15.254 71.4923 14.2292C71.3856 13.2043 71.0587 12.2152 70.5345 11.3306C69.887 10.224 68.9716 9.30117 67.874 8.64845C66.7839 7.99489 65.5391 7.64993 64.2708 7.64993C63.0025 7.64993 61.7577 7.99489 60.6676 8.64845C59.576 9.29832 58.6702 10.2224 58.0385 11.3306C57.565 12.1556 57.2573 13.0666 57.1331 14.0115C57.009 14.9564 57.0707 15.9168 57.3149 16.8376C57.5591 17.7585 57.9808 18.6218 58.5561 19.3782C59.1314 20.1346 59.8489 20.7694 60.6676 21.2461C61.7598 21.8917 63.0048 22.2274 64.2708 22.2176C64.7707 22.2177 65.2693 22.1646 65.7582 22.0592ZM62.134 18.8808C61.4686 18.4792 60.9168 17.9119 60.5314 17.2334C60.1575 16.5337 59.9733 15.747 59.9973 14.9526C59.9876 14.1545 60.1863 13.3679 60.5733 12.6717C60.5938 12.6272 60.6184 12.5848 60.6467 12.545C61.0317 11.893 61.5808 11.355 62.2383 10.9857C62.8958 10.6163 63.6384 10.4285 64.391 10.4414C65.1436 10.4542 65.8795 10.6673 66.5242 11.0589C67.1689 11.4505 67.6996 12.0069 68.0625 12.6717C68.44 13.3717 68.638 14.1558 68.6386 14.9526C68.6389 15.7469 68.4484 16.5295 68.0835 17.2334C67.719 17.9067 67.1888 18.474 66.5437 18.8808C65.8935 19.2899 65.142 19.5058 64.3755 19.5038C63.585 19.5135 62.8079 19.2975 62.134 18.8808Z" fill="white"/>
</g>
<defs>
<clipPath id="clip0_2926_1538">
<rect width="72" height="30" fill="white"/>
</clipPath>
</defs>
</svg>
