<svg width="215" height="150" viewBox="0 0 215 150" fill="none" xmlns="http://www.w3.org/2000/svg">
<path fill-rule="evenodd" clip-rule="evenodd" d="M9.68396 94.1087L13.1835 98.9201L13.5865 99.4781C14.6777 100.96 15.6705 101.719 16.5356 101.774H16.9484C17.0959 101.774 17.1745 101.838 17.1647 101.939C17.1549 102.039 16.9681 102.158 16.6044 102.259C16.193 102.354 15.7701 102.401 15.3461 102.396C14.617 102.405 13.9029 102.203 13.3014 101.82C12.5699 101.292 11.9442 100.648 11.4534 99.9172L8.30773 95.435L8.1308 95.1697C8.02953 95.0136 7.88458 94.8861 7.71144 94.8007C7.5383 94.7153 7.34347 94.6753 7.14778 94.6849H5.457L5.17193 94.7398C5.07363 94.7856 5.02447 94.9136 5.02447 95.1149V99.2677C5.00674 99.7304 5.043 100.194 5.1326 100.649C5.21957 100.92 5.40335 101.156 5.6536 101.317C6.15337 101.625 6.73512 101.8 7.33456 101.82C7.64257 101.856 7.79985 101.948 7.8064 102.094C7.8064 102.25 7.67862 102.332 7.38371 102.332L6.63661 102.277C6.29256 102.277 5.7519 102.231 5.02447 102.231H3.15675C2.86185 102.231 2.5178 102.231 2.11476 102.286C1.71172 102.341 1.55443 102.341 1.42664 102.341C1.29885 102.341 1.11208 102.259 1.11208 102.094C1.11208 101.93 1.21038 101.902 1.42664 101.866C1.7085 101.84 1.97861 101.748 2.21101 101.597C2.44341 101.447 2.6303 101.243 2.75371 101.006C3.02906 100.14 3.13886 99.2359 3.07811 98.3347V88.6386C3.07811 87.4128 2.62591 86.7268 1.70188 86.5896L1.10226 86.4981C0.827014 86.4524 0.699219 86.3609 0.699219 86.2146C0.699219 86.0682 0.836843 85.9767 1.13175 85.9767C1.19073 85.9767 1.49546 85.9767 2.01645 86.0224C2.32119 86.0224 2.69473 86.0224 3.13709 86.0224C3.57944 86.0224 4.19874 86.0225 5.10311 85.9401C5.78139 85.9401 6.37121 85.8761 6.89221 85.8761C8.4362 85.7794 9.97367 86.1379 11.2863 86.9006C11.7822 87.2548 12.177 87.7171 12.4358 88.2466C12.6947 88.7762 12.8096 89.3569 12.7706 89.9375C12.8198 91.7761 11.7778 93.1391 9.68396 94.1087ZM5.95833 93.8434H7.42303C8.38003 93.8964 9.32051 93.5937 10.0378 93.0018C10.3666 92.6977 10.6237 92.3333 10.7929 91.9318C10.9622 91.5302 11.0398 91.1003 11.0209 90.6693C11.0376 90.141 10.9312 89.6156 10.7089 89.1292C10.4866 88.6429 10.1537 88.2071 9.73311 87.8519C8.8292 87.1036 7.64893 86.7102 6.44001 86.7542C6.07793 86.7177 5.71338 86.7985 5.40785 86.9829C5.29846 87.0942 5.21633 87.2263 5.16712 87.37C5.1179 87.5137 5.10278 87.6657 5.12278 87.8153V93.0018C5.12278 93.3677 5.17193 93.6056 5.28006 93.697C5.48372 93.8116 5.72127 93.8629 5.95833 93.8434ZM26.6016 89.5442V98.3622C26.561 99.0938 26.6338 99.827 26.8179 100.539C26.9323 100.875 27.1513 101.171 27.447 101.39C27.8021 101.59 28.2029 101.709 28.6168 101.738C29.0395 101.802 29.2459 101.893 29.2459 102.039C29.2459 102.186 29.1181 102.314 28.8625 102.314C28.7022 102.325 28.5412 102.325 28.3809 102.314C28.1155 102.314 27.6633 102.314 27.0341 102.314H25.1959L23.7017 102.396C23.456 102.396 23.2495 102.396 23.0923 102.396C22.935 102.396 22.758 102.314 22.758 102.149C22.758 101.984 22.8858 101.92 23.1512 101.884C23.3939 101.87 23.6304 101.808 23.8443 101.7C24.0583 101.593 24.2444 101.443 24.3898 101.262C24.6288 100.632 24.7226 99.9615 24.6651 99.2952V89.2332C24.7275 88.5603 24.6058 87.8837 24.3112 87.2665C24.1158 87.0625 23.8787 86.8968 23.6137 86.779C23.3487 86.6612 23.0612 86.5937 22.7679 86.5804C22.5025 86.5347 22.3747 86.4432 22.355 86.306C22.3353 86.1688 22.473 86.0408 22.7286 86.0408H22.9546C23.5739 86.0956 24.3898 86.1322 25.4122 86.1322C26.0315 86.1322 26.5721 86.1322 27.0243 86.1322L27.8697 86.0773H28.1843C28.4104 86.0773 28.5283 86.1505 28.5283 86.306C28.5283 86.4615 28.4202 86.553 28.2039 86.617L27.5355 86.8549C26.9162 86.9372 26.6016 87.8794 26.6016 89.5442ZM51.1769 90.3034C50.4593 91.4834 49.9777 92.2884 49.7418 92.7457L48.6113 94.9959L47.3235 97.4749L46.2717 99.6977C46.0063 100.247 45.7802 100.704 45.5836 101.061L45.3575 101.5C45.1806 101.875 45.0036 102.058 44.807 102.058C44.6104 102.058 44.4138 101.866 44.2271 101.481C44.2271 101.408 44.0796 101.198 43.8732 100.832L43.6176 100.338L38.8795 90.7516L38.5845 96.5876C38.5845 97.0724 38.5845 98.0329 38.5845 99.469C38.5845 100.905 39.1154 101.619 40.1574 101.765C40.6685 101.847 40.9339 101.966 40.9339 102.122C40.9339 102.277 40.8062 102.396 40.5604 102.396C40.4066 102.406 40.2522 102.406 40.0984 102.396C39.1154 102.323 38.4174 102.277 37.9063 102.277C37.3144 102.276 36.7232 102.312 36.1369 102.387H35.7338C35.4881 102.387 35.3603 102.295 35.3603 102.122C35.3603 101.948 35.4586 101.911 35.665 101.866C35.9293 101.826 36.1812 101.733 36.4035 101.594C36.6258 101.455 36.8131 101.273 36.9527 101.061C37.2585 100.416 37.4095 99.7164 37.3951 99.0116L37.5819 95.5905C37.6998 93.1116 37.7686 91.5474 37.7686 90.898C37.8367 89.8317 37.6312 88.7656 37.169 87.7879C36.9684 87.4521 36.6861 87.1647 36.3447 86.9487C36.0033 86.7327 35.6123 86.594 35.203 86.5439C34.9474 86.5439 34.8196 86.4066 34.8196 86.2511C34.8196 86.0956 34.9277 85.995 35.1342 85.995H35.5569C35.8417 86.0109 36.1273 86.0109 36.4121 85.995C37.1133 85.995 37.5557 85.995 37.7392 85.995C37.9259 85.995 38.0832 85.995 38.2012 85.995C38.5649 85.995 38.8696 86.2511 39.1154 86.7451L39.253 87.0104L44.5318 97.6121L45.1806 98.8287C45.2789 99.0391 45.3477 99.1397 45.387 99.1397C45.4263 99.1397 45.505 99.0574 45.5738 98.911L45.7311 98.5909L45.8392 98.3622L51.7962 86.4707C51.8686 86.3041 51.9644 86.1472 52.0813 86.0042C52.1275 85.9687 52.1809 85.9423 52.2383 85.9265C52.2958 85.9108 52.3561 85.9061 52.4156 85.9127L52.9759 85.9584H53.3887C53.7944 85.9851 54.2013 85.9912 54.6077 85.9767H54.9714C55.1385 85.9767 55.227 86.0408 55.227 86.2146C55.2276 86.2814 55.202 86.3462 55.1549 86.3967C55.1079 86.4473 55.0426 86.4801 54.9714 86.489L54.4209 86.6262C54.2166 86.6685 54.027 86.7577 53.8691 86.8855C53.7112 87.0132 53.59 87.1756 53.5165 87.358C53.3075 87.9881 53.2209 88.6479 53.2609 89.3064L53.3396 92.1511L53.5755 98.5543L53.6443 100.045C53.5957 100.498 53.7211 100.951 53.9982 101.326C54.3438 101.641 54.8024 101.827 55.2859 101.847C55.7283 101.911 55.9642 102.012 55.9642 102.167C55.9642 102.323 55.7971 102.396 55.4924 102.396H55.168L54.185 102.305C53.8326 102.267 53.4781 102.249 53.1233 102.25C52.8546 102.25 52.4418 102.268 51.8847 102.305L50.361 102.36C50.1153 102.36 49.9973 102.295 49.9973 102.149C49.9973 102.003 50.0956 101.939 50.3119 101.884C50.7132 101.807 51.0662 101.587 51.2949 101.271C51.5052 100.8 51.5928 100.289 51.5505 99.78L51.5013 97.8591L51.1769 90.3034ZM71.5745 96.0387H66.9936C66.5969 96.0065 66.1974 96.0564 65.8239 96.1851C65.5578 96.4496 65.3507 96.7605 65.2144 97.0998L64.3887 98.8378C64.0879 99.389 63.9011 99.9879 63.8382 100.603C63.8219 100.749 63.8398 100.897 63.8907 101.036C63.9416 101.175 64.0243 101.302 64.1331 101.408C64.4833 101.63 64.8835 101.774 65.3029 101.829C65.5584 101.884 65.6862 101.975 65.6961 102.113C65.7059 102.25 65.5879 102.305 65.3422 102.305H64.9097L63.7005 102.25C63.2975 102.25 62.8257 102.25 62.2948 102.25H61.0169C60.7908 102.25 60.6729 102.186 60.6729 102.039C60.6697 101.981 60.69 101.923 60.73 101.877C60.7699 101.832 60.8266 101.801 60.8891 101.792L61.3511 101.664C61.6334 101.535 61.8716 101.336 62.0392 101.088C62.3165 100.766 62.554 100.417 62.747 100.045L63.1206 99.2677L69.6281 85.8212C69.7362 85.5834 69.864 85.4736 69.9918 85.4736C70.1196 85.4736 70.2474 85.5834 70.3359 85.8121L75.7818 98.7829L76.057 99.4233C76.2764 100.062 76.6087 100.661 77.04 101.198C77.5151 101.505 78.0667 101.694 78.6424 101.747C78.8979 101.792 79.0257 101.893 79.0159 102.039C79.0061 102.186 78.8881 102.231 78.662 102.231H78.1901C77.7478 102.231 76.9614 102.167 75.8309 102.167C75.096 102.151 74.3608 102.176 73.629 102.241C73.4981 102.249 73.3667 102.249 73.2358 102.241C73.0195 102.241 72.9114 102.158 72.9114 101.994C72.9114 101.875 73.0097 101.792 73.2259 101.747L73.6191 101.664C73.817 101.637 73.9953 101.538 74.1151 101.389C74.2348 101.24 74.2862 101.053 74.2581 100.869C74.1268 100.009 73.8653 99.1715 73.4815 98.3805L72.8524 96.8163C72.7703 96.5412 72.6262 96.2855 72.4297 96.0662C72.15 96.0005 71.8584 95.9911 71.5745 96.0387ZM71.7318 94.1544L69.7657 89.4893L69.6674 89.2423C69.5691 88.9862 69.461 88.8581 69.343 88.8581C69.284 88.8581 69.2054 88.9222 69.1366 89.0777L66.6299 94.2093C66.5561 94.345 66.5031 94.4897 66.4726 94.6392C66.4726 94.8496 66.6693 94.9502 67.0526 94.9502H71.2206C71.6531 94.9502 71.8497 94.8496 71.8497 94.6575C71.842 94.5641 71.8222 94.472 71.7908 94.3831L71.7318 94.1544ZM92.8469 94.1544L96.3464 98.9659L96.7593 99.5239C97.8406 101.006 98.8335 101.765 99.7083 101.82H100.121C100.269 101.82 100.347 101.884 100.337 101.984C100.328 102.085 100.141 102.204 99.7771 102.305C99.369 102.4 98.9494 102.446 98.5287 102.442C97.7993 102.452 97.0847 102.251 96.484 101.866C95.7476 101.342 95.1211 100.697 94.636 99.963L91.4805 95.4808L91.3035 95.2155C91.2031 95.0587 91.0583 94.9305 90.885 94.8451C90.7116 94.7596 90.5164 94.72 90.3205 94.7307H88.6396L88.3545 94.7856C88.2562 94.8313 88.2071 94.9594 88.2071 95.1606V99.3135C88.1893 99.7762 88.2256 100.239 88.3152 100.695C88.4022 100.966 88.586 101.202 88.8362 101.362C89.3366 101.67 89.918 101.844 90.5172 101.866C90.8186 101.902 90.9759 101.994 90.989 102.14C90.989 102.296 90.8612 102.378 90.5663 102.378L89.8192 102.323C89.4752 102.323 88.9345 102.277 88.2071 102.277H86.3393C86.0543 102.277 85.7004 102.277 85.2973 102.332C85.0691 102.361 84.8395 102.38 84.6092 102.387C84.4028 102.387 84.2947 102.305 84.2947 102.14C84.2947 101.975 84.4028 101.948 84.6092 101.911C84.892 101.885 85.163 101.792 85.3968 101.642C85.6306 101.491 85.8196 101.288 85.9461 101.051C86.2168 100.185 86.3232 99.281 86.2607 98.3805V88.6843C86.2607 87.4586 85.8085 86.7725 84.8845 86.6353L84.2848 86.5439C84.0194 86.4981 83.8818 86.4066 83.8818 86.2603C83.8818 86.1139 84.0293 86.0224 84.3143 86.0224C84.3831 86.0224 84.678 86.0225 85.199 86.0682C85.5038 86.0682 85.8773 86.0682 86.3295 86.0682C86.7817 86.0682 87.3813 86.0682 88.2955 85.9859C88.9738 85.9859 89.5636 85.9218 90.0846 85.9218C91.6287 85.8239 93.1666 86.1825 94.4787 86.9463C94.9766 87.2989 95.3728 87.7609 95.6319 88.2908C95.8909 88.8208 96.0047 89.4023 95.9631 89.9832C95.9827 91.7761 94.9112 93.1391 92.8469 94.1087V94.1544ZM89.1311 93.8891H90.5565C91.0304 93.9164 91.5055 93.8561 91.9543 93.7116C92.4031 93.5672 92.8167 93.3415 93.1713 93.0476C93.502 92.7448 93.7605 92.3806 93.9298 91.9787C94.0992 91.5769 94.1757 91.1463 94.1543 90.715C94.1711 90.1867 94.0646 89.6613 93.8423 89.175C93.62 88.6886 93.2871 88.2529 92.8666 87.8977C91.9626 87.1494 90.7824 86.7559 89.5735 86.8C89.2277 86.7739 88.8823 86.8542 88.5904 87.0287C88.4832 87.1413 88.4025 87.2735 88.3534 87.4168C88.3043 87.5602 88.2879 87.7115 88.3054 87.8611V93.0476C88.3054 93.4135 88.3545 93.6513 88.4627 93.7428C88.6694 93.8385 88.9025 93.8736 89.1311 93.8434V93.8891ZM117.334 93.4318H124.805C125.048 93.4484 125.293 93.4173 125.522 93.3403C125.579 93.2828 125.621 93.2146 125.647 93.1404C125.672 93.0661 125.68 92.9877 125.67 92.9104V88.8856C125.721 88.2941 125.603 87.7005 125.326 87.1659C125.183 86.978 125 86.8193 124.789 86.6998C124.577 86.5802 124.342 86.5022 124.097 86.4707C123.841 86.4249 123.723 86.3335 123.733 86.1871C123.743 86.0408 123.841 85.9859 124.048 85.9859C124.254 85.9859 124.51 85.9859 124.913 86.0499C125.501 86.1065 126.091 86.134 126.682 86.1322C127.316 86.1429 127.949 86.1185 128.579 86.059L129.051 86.0133C129.258 86.0133 129.356 86.0865 129.356 86.242C129.356 86.3975 129.258 86.4341 129.051 86.4798L128.53 86.5804C128.384 86.6158 128.249 86.6821 128.134 86.7741C128.02 86.8661 127.93 86.9814 127.872 87.111C127.69 87.432 127.598 87.7909 127.606 88.1538V99.5513C127.548 100.156 127.681 100.763 127.99 101.298C128.175 101.485 128.4 101.633 128.651 101.734C128.901 101.834 129.172 101.886 129.444 101.884C129.71 101.884 129.848 101.994 129.848 102.122C129.848 102.25 129.749 102.405 129.494 102.405C129.276 102.397 129.059 102.376 128.845 102.341C128.422 102.318 127.999 102.318 127.577 102.341H125.001L124.126 102.405C123.92 102.405 123.822 102.332 123.822 102.167C123.822 102.003 123.979 101.939 124.264 101.893C125.149 101.756 125.591 101.079 125.591 99.8806V95.0874C125.621 94.8658 125.583 94.6409 125.483 94.438C125.238 94.3553 124.976 94.324 124.716 94.3465H117.255C116.946 94.3139 116.633 94.3614 116.351 94.4837C116.233 94.5752 116.174 94.8039 116.174 95.1697V99.5056C116.113 100.106 116.261 100.709 116.596 101.225C117.008 101.611 117.566 101.831 118.15 101.838C118.464 101.838 118.622 101.966 118.631 102.149C118.641 102.332 118.523 102.387 118.268 102.387C118.06 102.379 117.853 102.358 117.648 102.323C117.142 102.284 116.633 102.269 116.125 102.277H113.431C112.989 102.277 112.723 102.323 112.625 102.323C112.527 102.323 112.32 102.259 112.32 102.113C112.32 101.966 112.419 101.875 112.645 101.829L113.284 101.683C113.475 101.631 113.647 101.531 113.781 101.394C113.915 101.257 114.005 101.087 114.041 100.905C114.201 100.143 114.267 99.3667 114.237 98.5909V88.4648C114.285 87.9386 114.139 87.413 113.824 86.9738C113.418 86.6138 112.89 86.3971 112.33 86.3609C112.084 86.3609 111.957 86.242 111.957 86.1048C111.957 85.9676 112.065 85.867 112.291 85.8761L113.048 85.9401C113.818 86.0187 114.593 86.0554 115.368 86.0499C115.929 86.0489 116.491 86.0184 117.049 85.9584C117.224 85.9297 117.402 85.9144 117.58 85.9127C117.825 85.9127 117.953 85.9859 117.953 86.1597C117.953 86.3335 117.835 86.37 117.609 86.4249C117.171 86.4889 116.769 86.6888 116.469 86.9921C116.238 87.3731 116.136 87.8095 116.174 88.2453V92.453C116.134 92.729 116.185 93.0098 116.321 93.258C116.638 93.3913 116.99 93.4359 117.334 93.386V93.4318ZM145.645 85.8304C146.837 85.7887 148.027 85.9686 149.145 86.3597C150.262 86.7508 151.284 87.3451 152.152 88.108C152.991 88.8614 153.651 89.7699 154.089 90.7751C154.528 91.7802 154.735 92.8597 154.698 93.944C154.742 95.084 154.538 96.2205 154.097 97.2848C153.656 98.3492 152.987 99.3193 152.132 100.137C151.279 100.938 150.257 101.566 149.131 101.982C148.004 102.398 146.797 102.591 145.586 102.552C144.373 102.601 143.162 102.423 142.025 102.026C140.889 101.63 139.849 101.025 138.97 100.247C138.121 99.4529 137.457 98.5045 137.021 97.4608C136.584 96.4172 136.384 95.3008 136.434 94.1819C136.44 93.0792 136.666 91.9873 137.102 90.962C137.494 89.931 138.129 88.9948 138.961 88.2223C139.793 87.4499 140.8 86.8607 141.909 86.4981C143.094 86.0414 144.362 85.7993 145.645 85.7846V85.8304ZM144.829 86.5896C143.953 86.5526 143.08 86.6976 142.272 87.014C141.464 87.3305 140.743 87.8105 140.159 88.4191C138.944 89.8228 138.327 91.5948 138.429 93.3952C138.358 95.5846 139.144 97.7235 140.641 99.4141C141.283 100.182 142.106 100.803 143.047 101.228C143.988 101.653 145.021 101.871 146.067 101.866C146.985 101.886 147.895 101.718 148.735 101.374C149.574 101.029 150.322 100.516 150.923 99.8715C152.23 98.4695 152.915 96.6581 152.84 94.8039C152.912 92.6441 152.088 90.5415 150.54 88.9313C149.833 88.1692 148.956 87.5605 147.969 87.148C146.982 86.7355 145.91 86.5293 144.829 86.5439V86.5896ZM173.405 87.3763H169.846C169.602 87.3477 169.355 87.3994 169.148 87.5226C169.018 87.7328 168.966 87.9773 169.001 88.2178V100.237C169 100.656 169.172 101.059 169.481 101.364C169.79 101.669 170.213 101.851 170.662 101.875C170.957 101.917 171.105 102.009 171.105 102.149C171.105 102.314 170.987 102.405 170.751 102.405C170.543 102.392 170.336 102.367 170.131 102.332C169.752 102.31 169.371 102.31 168.991 102.332H167.074C166.776 102.316 166.478 102.316 166.18 102.332L165.324 102.405C165.069 102.405 164.951 102.314 164.951 102.149C164.951 101.984 165.089 101.939 165.364 101.911C165.854 101.897 166.321 101.718 166.681 101.408C166.953 100.998 167.074 100.516 167.025 100.036V87.9891C167.051 87.8009 167.006 87.61 166.897 87.4494C166.711 87.3474 166.493 87.3056 166.278 87.3305H162.926C162.398 87.2906 161.872 87.4267 161.442 87.7147C161.051 88.118 160.801 88.6219 160.724 89.16C160.645 89.4619 160.527 89.6173 160.38 89.6082C160.232 89.5991 160.144 89.4893 160.144 89.288C160.17 88.9797 160.222 88.6738 160.301 88.3733C160.414 87.9108 160.477 87.4388 160.488 86.9646C160.464 86.7226 160.512 86.479 160.626 86.2603C160.699 86.1939 160.787 86.1437 160.884 86.1136C160.981 86.0835 161.085 86.0743 161.186 86.0865H174.82C175.292 86.0865 175.567 86.1322 175.666 86.2328C175.802 86.4908 175.853 86.7803 175.813 87.0653C175.805 87.4046 175.825 87.744 175.872 88.0806C175.872 88.3459 175.941 88.538 175.951 88.6569C175.961 88.7758 175.872 89.0228 175.685 89.0319C175.499 89.0411 175.43 88.9222 175.381 88.666C175.348 88.256 175.16 87.8701 174.85 87.5775C174.404 87.3659 173.902 87.28 173.405 87.3305V87.3763ZM185.643 92.7366C185.615 92.9582 185.653 93.1827 185.751 93.386C185.82 93.4684 186.046 93.505 186.41 93.505H188.376C189.081 93.5201 189.785 93.4711 190.48 93.3586C190.803 93.3264 191.11 93.209 191.364 93.0202C191.565 92.7178 191.69 92.3768 191.728 92.0231C191.728 91.831 191.885 91.7395 192.053 91.7395C192.22 91.7395 192.298 91.8584 192.298 92.0597C192.298 92.1146 192.298 92.206 192.298 92.325C192.239 93.0842 192.2 93.7794 192.2 94.4105C192.2 94.8862 192.2 95.3253 192.279 95.8375C192.279 95.993 192.279 96.1028 192.279 96.176C192.279 96.2491 192.2 96.4687 192.043 96.4687C192.003 96.4724 191.963 96.4687 191.925 96.4578C191.887 96.4468 191.852 96.4288 191.822 96.4049C191.792 96.381 191.767 96.3516 191.749 96.3186C191.731 96.2855 191.721 96.2495 191.718 96.2126L191.64 95.8832C191.621 95.6754 191.559 95.4731 191.456 95.2879C191.353 95.1026 191.212 94.9381 191.04 94.8039C190.558 94.5856 190.022 94.4909 189.487 94.5294H186.685C186.405 94.5107 186.123 94.5481 185.86 94.6392C185.784 94.6952 185.725 94.7684 185.689 94.8518C185.653 94.9351 185.641 95.0257 185.653 95.1149V99.844C185.653 100.512 185.781 100.933 186.037 101.097C186.663 101.319 187.336 101.404 188.003 101.344C191.319 101.344 193.448 100.649 194.392 99.2586C194.421 99.206 194.462 99.1595 194.511 99.1217C194.56 99.084 194.616 99.0559 194.677 99.0391C194.825 99.0391 194.903 99.1397 194.903 99.3501C194.824 100.039 194.499 100.683 193.979 101.18C193.651 101.582 193.225 101.907 192.737 102.128C192.248 102.348 191.711 102.459 191.168 102.451C190.922 102.451 190.598 102.451 190.185 102.405C188.573 102.268 187.236 102.195 186.194 102.195C185.146 102.173 184.099 102.219 183.058 102.332C182.842 102.381 182.621 102.411 182.399 102.424C182.124 102.424 181.996 102.332 181.996 102.167C181.996 102.003 182.105 101.939 182.321 101.884L182.802 101.756C183.412 101.6 183.717 101.042 183.717 100.1V89.3155C183.783 88.5379 183.648 87.7568 183.323 87.0378C183.138 86.8274 182.898 86.6643 182.627 86.5635C182.355 86.4627 182.06 86.4276 181.77 86.4615C181.525 86.4615 181.397 86.3884 181.397 86.242C181.397 86.0956 181.593 85.9127 181.967 85.9127C182.253 85.9172 182.538 85.9356 182.822 85.9676C184.269 86.1065 185.723 86.1706 187.177 86.1597C188.16 86.1597 189.143 86.1597 189.919 86.1139L191.709 86.0316C192.21 86.0316 192.524 86.0316 192.623 85.9767C192.792 85.9532 192.963 85.938 193.134 85.931C193.409 85.931 193.557 86.0408 193.557 86.2694C193.564 86.3608 193.564 86.4525 193.557 86.5439C193.557 86.6536 193.498 86.9738 193.448 87.4586L193.399 88.1538C193.38 88.4424 193.34 88.7297 193.281 89.0136C193.259 89.0674 193.22 89.1138 193.169 89.1465C193.119 89.1791 193.058 89.1966 192.996 89.1966C192.839 89.1966 192.751 89.0868 192.751 88.8398V88.5288C192.751 88.2844 192.701 88.0421 192.603 87.8153C192.513 87.6315 192.377 87.4706 192.206 87.3464C192.034 87.2221 191.834 87.1383 191.62 87.1019C190.731 86.9585 189.828 86.9003 188.927 86.928H186.961C186.621 86.8952 186.278 86.9589 185.978 87.111C185.861 87.219 185.77 87.3493 185.712 87.4931C185.655 87.6368 185.631 87.7904 185.643 87.9434V92.7366ZM205.304 99.0574V99.4598C205.223 100.035 205.322 100.619 205.589 101.143C206.188 101.387 206.847 101.476 207.496 101.399C208.886 101.424 210.272 101.248 211.605 100.878C212.512 100.695 213.31 100.198 213.836 99.4873C213.954 99.2677 214.072 99.1671 214.19 99.1671C214.308 99.1671 214.387 99.2495 214.377 99.405C214.295 100.04 214.007 100.637 213.551 101.115C213.112 101.572 212.565 101.927 211.952 102.151C211.339 102.375 210.678 102.462 210.022 102.405C209.747 102.405 209.432 102.405 209.039 102.36L207.673 102.277C206.867 102.213 206.021 102.186 205.127 102.186C204.253 102.177 203.379 102.222 202.512 102.323C202.278 102.362 202.041 102.389 201.804 102.405C201.588 102.405 201.49 102.341 201.49 102.195C201.49 102.049 201.598 101.966 201.834 101.911C202.307 101.81 202.724 101.55 203.003 101.18C203.244 100.677 203.349 100.127 203.308 99.5788V88.4465C203.308 87.3946 202.846 86.7908 201.932 86.617L201.372 86.5073C201.155 86.5073 201.067 86.3884 201.067 86.2694C201.067 86.1505 201.204 86.0042 201.49 86.0042C201.775 86.0042 201.952 86.0042 202.286 86.0499C202.866 86.0956 203.505 86.1231 204.252 86.1231C204.999 86.1231 205.726 86.1231 206.365 86.059H206.906C207.112 86.059 207.211 86.1139 207.211 86.2328C207.211 86.3518 207.093 86.5164 206.847 86.5713L206.405 86.6628C205.638 86.8366 205.264 87.5775 205.264 88.7758L205.304 99.0574Z" fill="#83724C"/>
<path fill-rule="evenodd" clip-rule="evenodd" d="M59.6212 127.99V131.896C59.5576 132.457 59.6811 133.022 59.975 133.515C60.4389 133.866 61.0102 134.071 61.6068 134.101C61.8231 134.101 61.9411 134.21 61.9509 134.32C61.9607 134.43 61.8624 134.531 61.6757 134.521H61.0564C60.8008 134.521 60.3486 134.521 59.69 134.521H57.3307L56.6426 134.567C56.3871 134.567 56.2593 134.485 56.2593 134.311C56.2593 134.137 56.3772 134.137 56.5935 134.11C56.8035 134.102 57.0071 134.04 57.1809 133.93C57.3547 133.82 57.4918 133.667 57.5765 133.488C57.8054 132.877 57.9023 132.231 57.8616 131.585V122.474C57.9027 121.929 57.812 121.382 57.5962 120.874C57.489 120.713 57.3456 120.576 57.1759 120.471C57.0062 120.367 56.8142 120.298 56.6132 120.27L56.0528 120.169C55.8562 120.124 55.7579 120.05 55.7579 119.941C55.7579 119.831 55.8562 119.721 56.0627 119.721C56.2 119.709 56.3382 119.709 56.4755 119.721C56.8687 119.721 57.4585 119.776 58.3137 119.776H60.1913L60.7418 119.73C60.9286 119.73 61.017 119.785 61.017 119.931C61.017 120.078 60.9286 120.114 60.7418 120.188C60.3667 120.301 60.0444 120.53 59.8276 120.837C59.6677 121.31 59.6044 121.806 59.6408 122.301V126.453C59.6408 126.609 59.6408 126.682 59.7391 126.682L59.9259 126.563L60.1028 126.435L65.0179 122.328C65.7748 121.706 66.1484 121.203 66.1484 120.828C66.1484 120.453 65.883 120.288 65.3226 120.197C64.9786 120.142 64.8016 120.05 64.8016 119.922C64.8016 119.794 64.9196 119.703 65.1555 119.703C65.2603 119.696 65.3654 119.696 65.4701 119.703C65.7847 119.703 66.1484 119.703 66.5416 119.703H68.4585C68.7857 119.725 69.1142 119.725 69.4415 119.703H69.7954C70.0018 119.703 70.1099 119.767 70.1296 119.913C70.1492 120.06 69.9526 120.124 69.5791 120.206C68.891 120.371 67.5803 121.267 65.647 122.895L61.715 126.197C61.5944 126.283 61.5051 126.401 61.4594 126.536C61.4594 126.646 61.538 126.792 61.7346 126.984L67.7113 132.793C68.2596 133.368 68.9888 133.768 69.7954 133.936L70.2967 134.027C70.4736 134.027 70.5621 134.137 70.5621 134.238C70.5621 134.338 70.4441 134.503 70.1984 134.485C70.1101 134.492 70.0213 134.492 69.933 134.485C69.6056 134.468 69.2774 134.468 68.95 134.485C68.4978 134.485 68.1635 134.485 67.9669 134.485H67.4361C67.3086 134.484 67.1829 134.457 67.0675 134.406C66.9521 134.356 66.8498 134.283 66.7677 134.192L66.5711 133.991L60.3289 128.054L60.1028 127.826C60.0677 127.79 60.0253 127.761 59.978 127.74C59.9308 127.72 59.8797 127.709 59.8276 127.707C59.69 127.731 59.6212 127.826 59.6212 127.99ZM74.1009 127.368C74.9856 126.078 75.8016 125.429 76.5487 125.429C76.8958 125.468 77.2217 125.605 77.4825 125.822C77.8757 126.088 78.0723 126.298 78.092 126.463C78.0265 126.686 77.8975 126.888 77.7185 127.048C77.4727 127.332 77.2859 127.487 77.1876 127.487C77.0027 127.43 76.8298 127.343 76.6765 127.231C76.4076 127.038 76.0817 126.926 75.7426 126.911C75.5224 126.908 75.3041 126.949 75.1024 127.031C74.9006 127.113 74.72 127.234 74.5728 127.386C74.4154 127.541 74.2926 127.724 74.2116 127.923C74.1306 128.123 74.093 128.335 74.1009 128.548V132.353C74.0674 132.791 74.1554 133.229 74.3565 133.625C74.4597 133.758 74.5955 133.867 74.7528 133.942C74.9101 134.016 75.0843 134.055 75.2609 134.055L75.8507 134.101C76.0965 134.101 76.2243 134.183 76.2243 134.311C76.2243 134.439 76.1161 134.521 75.8999 134.521L75.3592 134.476C75.1464 134.464 74.9331 134.464 74.7202 134.476H73.3834C72.9598 134.467 72.5362 134.486 72.1153 134.531L71.7024 134.585C71.496 134.585 71.3977 134.521 71.3977 134.375C71.3977 134.229 71.5058 134.174 71.7516 134.128C71.8823 134.113 72.0075 134.07 72.1168 134.002C72.2261 133.933 72.3165 133.842 72.3807 133.735C72.5091 133.335 72.5591 132.916 72.5281 132.5V127.926C72.5281 127.112 72.1054 126.7 71.2699 126.7H70.8767C70.6997 126.7 70.6211 126.627 70.6211 126.49C70.6202 126.445 70.6365 126.401 70.667 126.366C70.6976 126.331 70.7405 126.307 70.7882 126.298H71.0339C71.9457 126.175 72.816 125.862 73.5799 125.383C73.6618 125.342 73.7523 125.317 73.8454 125.31C74.0223 125.31 74.1108 125.429 74.1108 125.667V127.496L74.1009 127.368ZM85.8971 129.692V128.374C85.9649 127.773 85.7897 127.17 85.4056 126.682C85.1721 126.465 84.8923 126.296 84.5841 126.185C84.2759 126.075 83.9463 126.026 83.6165 126.042C82.6335 126.042 82.1027 126.435 82.1027 127.231C82.1101 127.505 82.1598 127.776 82.2501 128.036C82.2854 128.147 82.3117 128.26 82.3288 128.374C82.3288 128.512 82.26 128.576 82.1027 128.576C81.7607 128.578 81.4231 128.503 81.1197 128.356C80.8248 128.219 80.6773 128.054 80.6773 127.89C80.7299 127.343 80.9998 126.834 81.4342 126.463C81.7849 126.117 82.2114 125.846 82.6846 125.668C83.1578 125.49 83.6667 125.408 84.1768 125.429C85.0381 125.377 85.8924 125.603 86.5951 126.069C86.8852 126.288 87.115 126.568 87.2654 126.887C87.4159 127.205 87.4826 127.552 87.4601 127.899V132.079C87.4237 132.561 87.5113 133.044 87.7157 133.488C87.802 133.628 87.9289 133.742 88.0818 133.818C88.2348 133.894 88.4077 133.929 88.5807 133.918H88.856C88.9454 133.891 89.0377 133.872 89.1312 133.863C89.2688 133.863 89.3278 133.909 89.318 134.009C89.3082 134.11 89.1312 134.274 88.7774 134.402C88.4645 134.52 88.1317 134.585 87.7943 134.595C87.4328 134.573 87.0833 134.465 86.7801 134.281C86.4768 134.097 86.2302 133.842 86.0642 133.543C85.1997 134.235 84.116 134.646 82.9775 134.713C82.3546 134.741 81.7435 134.548 81.2671 134.174C81.0549 133.988 80.8881 133.762 80.7779 133.511C80.6676 133.26 80.6166 132.99 80.6282 132.719C80.6224 132.329 80.7322 131.946 80.9455 131.61C81.1588 131.274 81.4673 131 81.8373 130.817C83.1083 130.221 84.4829 129.84 85.8971 129.692ZM85.8971 130.112C84.9239 130.146 83.9749 130.404 83.1348 130.862C82.8433 131.019 82.5999 131.242 82.4278 131.511C82.2557 131.781 82.1606 132.086 82.1518 132.399C82.1324 132.614 82.1636 132.83 82.2432 133.033C82.3228 133.235 82.4489 133.419 82.6127 133.571C82.7765 133.724 82.974 133.841 83.1915 133.915C83.409 133.989 83.6413 134.018 83.8721 134C84.1693 134.008 84.4652 133.961 84.7422 133.86C85.0192 133.759 85.2716 133.608 85.4843 133.415C85.7813 133.086 85.9263 132.662 85.8873 132.235L85.8971 130.112ZM95.1964 125.429C95.7271 125.418 96.256 125.492 96.7594 125.649L97.2608 125.813C97.4672 125.886 97.5753 125.987 97.5753 126.142V126.307C97.5753 126.408 97.5753 126.508 97.5753 126.609V127.03C97.5841 127.164 97.5841 127.298 97.5753 127.432C97.5753 127.707 97.4967 127.853 97.3197 127.862C97.1428 127.871 97.1526 127.78 97.074 127.579C96.9342 127.099 96.6238 126.678 96.1935 126.384C95.7632 126.09 95.2384 125.94 94.7049 125.96C94.2968 125.945 93.8976 126.073 93.5843 126.316C93.4484 126.433 93.34 126.574 93.2659 126.732C93.1917 126.889 93.1535 127.059 93.1535 127.231C93.1535 127.403 93.1917 127.573 93.2659 127.73C93.34 127.888 93.4484 128.029 93.5843 128.146C94.1921 128.532 94.8535 128.84 95.5503 129.06C96.2836 129.289 96.9545 129.664 97.5163 130.158C97.9065 130.596 98.1064 131.154 98.0766 131.722C98.08 132.112 97.994 132.498 97.8245 132.855C97.655 133.211 97.4059 133.53 97.0936 133.79C96.7928 134.065 96.4366 134.283 96.0452 134.431C95.6539 134.578 95.2352 134.652 94.813 134.649C94.0903 134.626 93.3821 134.454 92.7389 134.146C92.6357 134.089 92.5226 134.049 92.4047 134.027H92.1097C92.0719 134.029 92.0343 134.023 91.9991 134.01C91.9638 133.997 91.9319 133.977 91.9051 133.953C91.8784 133.928 91.8574 133.898 91.8436 133.865C91.8297 133.832 91.8233 133.797 91.8247 133.762V131.622C91.8247 131.43 91.9328 131.329 92.0704 131.32C92.208 131.311 92.2965 131.42 92.3555 131.649C92.4653 132.33 92.7865 132.966 93.2795 133.479C93.4941 133.69 93.7534 133.857 94.041 133.971C94.3286 134.084 94.6383 134.141 94.9507 134.137C95.4555 134.155 95.9483 133.991 96.3269 133.68C96.5018 133.531 96.6398 133.348 96.7314 133.144C96.8231 132.94 96.8662 132.721 96.8577 132.5C96.8518 132.139 96.7244 131.788 96.4934 131.498C96.2624 131.207 95.9395 130.992 95.57 130.881L94.587 130.469C93.8554 130.215 93.1866 129.827 92.6209 129.326C92.244 128.927 92.0407 128.411 92.0508 127.88C92.0476 127.549 92.1256 127.221 92.2789 126.921C92.4322 126.622 92.6567 126.358 92.9355 126.152C93.5602 125.648 94.3707 125.389 95.1964 125.429ZM103.985 127.121C104.346 126.636 104.819 126.232 105.371 125.939C105.922 125.646 106.536 125.472 107.17 125.429C107.741 125.414 108.307 125.535 108.814 125.78C109.321 126.025 109.753 126.386 110.069 126.829C110.629 127.708 110.887 128.727 110.807 129.747V133.14C110.831 133.367 110.945 133.576 111.127 133.729C111.309 133.881 111.545 133.965 111.79 133.963L112.271 134.027C112.478 134.027 112.586 134.128 112.586 134.238C112.586 134.348 112.478 134.476 112.212 134.476C112.062 134.484 111.911 134.484 111.76 134.476C111.299 134.438 110.837 134.423 110.374 134.43H108.31C108.28 134.413 108.256 134.388 108.24 134.359C108.225 134.33 108.218 134.298 108.221 134.265C108.224 134.214 108.246 134.165 108.284 134.128C108.322 134.091 108.373 134.068 108.428 134.064L108.772 133.982C109.086 133.909 109.234 133.652 109.234 133.213V129.554C109.29 128.735 109.029 127.923 108.497 127.268C108.238 126.994 107.916 126.78 107.555 126.64C107.194 126.501 106.803 126.44 106.413 126.463C105.802 126.454 105.206 126.638 104.722 126.984C104.505 127.114 104.325 127.291 104.196 127.5C104.068 127.708 103.995 127.942 103.985 128.182V133.094C103.985 133.698 104.545 134.009 105.577 134.082C105.833 134.082 105.96 134.183 105.96 134.311C105.96 134.439 105.872 134.503 105.695 134.503C105.497 134.493 105.3 134.472 105.105 134.439C104.968 134.439 104.604 134.439 104.034 134.439C102.815 134.439 102.068 134.439 101.851 134.439H101.389C101.242 134.439 101.173 134.375 101.183 134.265C101.193 134.155 101.271 134.11 101.409 134.064C101.716 133.982 101.99 133.816 102.195 133.588C102.351 133.306 102.419 132.99 102.392 132.674V127.853C102.424 127.501 102.356 127.148 102.195 126.829C102.108 126.728 101.994 126.65 101.865 126.602C101.736 126.554 101.596 126.538 101.458 126.554H100.967C100.901 126.557 100.835 126.541 100.78 126.508C100.75 126.496 100.724 126.475 100.707 126.449C100.689 126.423 100.681 126.393 100.682 126.362C100.682 126.261 100.78 126.197 100.977 126.152C101.486 126.068 101.982 125.924 102.451 125.722L103.061 125.447L103.513 125.237C103.596 125.19 103.691 125.162 103.788 125.155C103.926 125.155 103.985 125.255 103.975 125.466C103.965 125.676 103.975 125.713 103.975 125.868L103.985 127.121ZM119.487 125.429C120.143 125.422 120.795 125.537 121.402 125.768C122.01 125.999 122.562 126.341 123.026 126.774C123.496 127.187 123.87 127.686 124.124 128.24C124.378 128.794 124.506 129.391 124.5 129.993C124.521 130.615 124.402 131.234 124.152 131.81C123.901 132.387 123.524 132.908 123.045 133.341C122.561 133.782 121.985 134.127 121.353 134.355C120.721 134.583 120.046 134.689 119.369 134.668C118.708 134.688 118.05 134.585 117.434 134.363C116.817 134.141 116.255 133.806 115.781 133.378C114.863 132.488 114.357 131.297 114.374 130.064C114.39 128.83 114.927 127.651 115.869 126.783C116.344 126.343 116.909 125.997 117.53 125.764C118.152 125.532 118.817 125.418 119.487 125.429ZM119.182 125.85C118.742 125.837 118.306 125.919 117.906 126.091C117.507 126.262 117.156 126.518 116.882 126.838C116.265 127.575 115.951 128.493 115.997 129.426C115.95 130.644 116.333 131.843 117.088 132.838C117.388 133.258 117.794 133.603 118.27 133.842C118.747 134.081 119.279 134.208 119.821 134.21C120.25 134.228 120.678 134.147 121.066 133.977C121.455 133.806 121.793 133.551 122.052 133.232C122.644 132.468 122.936 131.537 122.878 130.597C122.937 129.383 122.575 128.184 121.846 127.176C121.561 126.77 121.172 126.436 120.714 126.205C120.255 125.973 119.743 125.851 119.221 125.85H119.182ZM135.195 133.076C134.623 133.57 133.986 133.995 133.298 134.338C132.784 134.56 132.223 134.672 131.656 134.668C131.094 134.679 130.537 134.571 130.026 134.352C129.515 134.133 129.064 133.81 128.707 133.405C127.916 132.54 127.499 131.431 127.538 130.295C127.504 129.018 128.004 127.778 128.933 126.838C129.366 126.386 129.898 126.026 130.493 125.783C131.089 125.54 131.734 125.419 132.384 125.429C133.388 125.446 134.368 125.721 135.215 126.225V122.017C135.215 120.663 134.832 120.014 134.045 120.05H133.642C133.593 120.059 133.543 120.059 133.495 120.05C133.459 120.039 133.428 120.019 133.405 119.991C133.382 119.963 133.369 119.93 133.367 119.895C133.367 119.748 133.465 119.666 133.701 119.639C134.659 119.486 135.573 119.15 136.385 118.651C136.449 118.611 136.524 118.585 136.601 118.578C136.719 118.578 136.778 118.66 136.778 118.815V132.536C136.778 133.351 137.043 133.744 137.574 133.744H138.351C138.39 133.756 138.423 133.779 138.446 133.811C138.469 133.842 138.481 133.88 138.479 133.918C138.479 134.064 138.341 134.165 138.066 134.192L137.466 134.256L136.827 134.348C136.49 134.384 136.16 134.461 135.844 134.576C135.74 134.639 135.623 134.68 135.5 134.695C135.323 134.695 135.235 134.521 135.235 134.165L135.195 133.076ZM135.195 131.786V128.265C135.218 128.01 135.186 127.755 135.1 127.512C135.014 127.27 134.876 127.047 134.694 126.856C134.339 126.53 133.919 126.273 133.456 126.1C132.994 125.927 132.499 125.842 132 125.85C131.57 125.837 131.143 125.919 130.754 126.089C130.364 126.259 130.024 126.513 129.759 126.829C129.162 127.57 128.863 128.483 128.914 129.408C128.888 130.51 129.282 131.586 130.025 132.445C130.327 132.834 130.722 133.152 131.179 133.375C131.637 133.597 132.143 133.717 132.659 133.726C133.319 133.758 133.969 133.566 134.487 133.186C134.718 133.022 134.904 132.81 135.031 132.567C135.157 132.324 135.22 132.056 135.215 131.786H135.195ZM146.323 129.692V128.374C146.396 127.773 146.22 127.168 145.831 126.682C145.598 126.465 145.318 126.296 145.01 126.185C144.702 126.075 144.372 126.026 144.042 126.042C143.059 126.042 142.529 126.435 142.529 127.231C142.535 127.505 142.588 127.777 142.686 128.036C142.723 128.146 142.746 128.259 142.755 128.374C142.755 128.512 142.686 128.576 142.529 128.576C142.187 128.576 141.85 128.501 141.546 128.356C141.251 128.219 141.103 128.054 141.103 127.89C141.155 127.341 141.429 126.831 141.87 126.463C142.219 126.118 142.643 125.847 143.115 125.668C143.587 125.49 144.094 125.408 144.603 125.429C145.467 125.378 146.324 125.604 147.031 126.069C147.318 126.29 147.545 126.571 147.693 126.889C147.842 127.207 147.908 127.553 147.886 127.899V132.079C147.85 132.561 147.937 133.044 148.142 133.488C148.233 133.625 148.363 133.737 148.517 133.813C148.67 133.888 148.843 133.924 149.016 133.918H149.292L149.557 133.863C149.695 133.863 149.754 133.909 149.744 134.009C149.734 134.11 149.557 134.274 149.203 134.402C148.891 134.521 148.558 134.586 148.22 134.595C147.864 134.567 147.522 134.456 147.224 134.272C146.927 134.088 146.684 133.837 146.52 133.543C145.658 134.233 144.578 134.644 143.443 134.713C142.819 134.743 142.208 134.55 141.732 134.174C141.516 133.991 141.347 133.765 141.236 133.514C141.126 133.262 141.077 132.991 141.093 132.719C141.084 132.328 141.191 131.941 141.403 131.602C141.614 131.263 141.922 130.985 142.293 130.798C143.569 130.209 144.946 129.835 146.362 129.692H146.323ZM146.323 130.112C145.352 130.143 144.406 130.401 143.571 130.862C143.279 131.019 143.036 131.242 142.863 131.511C142.691 131.781 142.596 132.086 142.587 132.399C142.571 132.613 142.605 132.828 142.686 133.029C142.767 133.23 142.893 133.412 143.056 133.564C143.219 133.716 143.415 133.833 143.631 133.909C143.847 133.984 144.078 134.015 144.308 134C144.605 134.008 144.901 133.961 145.178 133.86C145.455 133.759 145.707 133.608 145.92 133.415C146.069 133.253 146.182 133.066 146.251 132.863C146.321 132.66 146.345 132.446 146.323 132.235V130.112ZM155.357 127.368C156.251 126.078 157.067 125.429 157.814 125.429C158.178 125.461 158.522 125.598 158.797 125.822C159.191 126.088 159.387 126.298 159.397 126.463C159.407 126.627 159.289 126.764 159.033 127.048C158.778 127.332 158.601 127.487 158.493 127.487C158.311 127.428 158.142 127.342 157.991 127.231C157.708 127.031 157.364 126.919 157.008 126.911C156.79 126.908 156.573 126.949 156.373 127.031C156.172 127.113 155.994 127.234 155.848 127.386C155.689 127.54 155.565 127.722 155.484 127.922C155.403 128.122 155.366 128.335 155.377 128.548V132.353C155.343 132.791 155.431 133.229 155.632 133.625C155.733 133.758 155.867 133.867 156.023 133.942C156.179 134.016 156.351 134.055 156.527 134.055L157.126 134.101C157.372 134.101 157.49 134.183 157.49 134.311C157.49 134.439 157.392 134.521 157.175 134.521L156.635 134.476C156.419 134.464 156.202 134.464 155.986 134.476H154.659C154.235 134.467 153.812 134.485 153.391 134.531L152.978 134.585C152.772 134.585 152.663 134.521 152.663 134.375C152.663 134.229 152.781 134.174 153.017 134.128C153.149 134.113 153.276 134.07 153.387 134.002C153.498 133.933 153.59 133.842 153.656 133.735C153.785 133.335 153.835 132.916 153.804 132.5V127.926C153.804 127.112 153.381 126.7 152.536 126.7H152.152C151.975 126.7 151.887 126.627 151.887 126.49C151.888 126.445 151.905 126.402 151.935 126.367C151.965 126.333 152.007 126.308 152.054 126.298H152.31C153.221 126.174 154.091 125.861 154.856 125.383C154.936 125.339 155.027 125.314 155.121 125.31C155.288 125.31 155.377 125.42 155.377 125.667V127.496L155.357 127.368Z" fill="#83724C"/>
<path fill-rule="evenodd" clip-rule="evenodd" d="M124.215 142.37L125.188 145.169H128.354L125.788 146.889L126.771 149.688L124.215 147.959L121.659 149.688L122.642 146.889L120.077 145.169H123.242L124.215 142.37Z" fill="#83724C"/>
<path fill-rule="evenodd" clip-rule="evenodd" d="M90.8711 142.37L91.8442 145.169H95.0095L92.4439 146.889L93.4269 149.688L90.8711 147.959L88.3152 149.688L89.2982 146.889L86.7326 145.169H89.8979L90.8711 142.37Z" fill="#83724C"/>
<path fill-rule="evenodd" clip-rule="evenodd" d="M140.779 142.278L141.752 145.077H144.917L142.352 146.797L143.335 149.605L140.779 147.867L138.223 149.605L139.206 146.797L136.64 145.077H139.806L140.779 142.278Z" fill="#83724C"/>
<path fill-rule="evenodd" clip-rule="evenodd" d="M107.69 142.361L108.654 145.169L111.819 145.16L109.263 146.889L110.246 149.688L107.69 147.95L105.125 149.688L106.108 146.889L103.552 145.16L106.717 145.169L107.69 142.361Z" fill="#83724C"/>
<path fill-rule="evenodd" clip-rule="evenodd" d="M74.3466 142.278L75.3198 145.077H78.4851L75.9194 146.797L76.9025 149.605L74.3466 147.867L71.7908 149.605L72.7738 146.797L70.2081 145.077H73.3734L74.3466 142.278Z" fill="#83724C"/>
<path fill-rule="evenodd" clip-rule="evenodd" d="M110.885 64.8008H104.27C104.191 64.8174 104.117 64.8492 104.052 64.8941C103.987 64.9389 103.933 64.9959 103.893 65.0614C103.853 65.1269 103.829 65.1993 103.821 65.2742C103.813 65.349 103.822 65.4246 103.847 65.496L106.914 70.9112C107.042 71.1399 107.14 71.396 107.435 71.396H107.691C107.976 71.396 108.084 71.1581 108.231 70.9295L111.338 65.4411C111.356 65.3713 111.359 65.2986 111.346 65.2276C111.333 65.1567 111.305 65.089 111.262 65.0289C111.22 64.9687 111.164 64.9174 111.1 64.8781C111.035 64.8389 110.962 64.8126 110.885 64.8008Z" fill="#83724C"/>
<path fill-rule="evenodd" clip-rule="evenodd" d="M113.687 29.4556L118.297 22.6043C118.372 22.4489 118.492 22.3161 118.644 22.2207C118.796 22.1254 118.973 22.0714 119.156 22.0647C119.339 22.0581 119.52 22.099 119.679 22.1831C119.838 22.2671 119.969 22.3908 120.057 22.5403L122.131 25.2113L122.849 26.126L124.942 28.8062C125.071 28.9297 125.159 29.0845 125.197 29.2526C125.235 29.4208 125.222 29.5955 125.158 29.7569C125.095 29.9182 124.984 30.0596 124.838 30.1649C124.692 30.2702 124.517 30.335 124.333 30.3521L115.909 32.3096C115.659 32.367 115.397 32.3616 115.15 32.2942C114.903 32.2267 114.68 32.0994 114.503 31.9254L114.424 31.8248L113.716 30.91L113.648 30.8277C113.521 30.6168 113.458 30.3781 113.465 30.1366C113.472 29.8952 113.549 29.66 113.687 29.4556Z" fill="#83724C"/>
<path fill-rule="evenodd" clip-rule="evenodd" d="M101.468 29.4556L96.8774 22.6043C96.8025 22.4489 96.6824 22.3161 96.5308 22.2207C96.3791 22.1254 96.2018 22.0714 96.019 22.0647C95.8361 22.0581 95.6548 22.099 95.4956 22.1831C95.3364 22.2671 95.2056 22.3908 95.1178 22.5403L92.3162 26.1351L90.2322 28.797C90.1039 28.9206 90.0156 29.0753 89.9774 29.2435C89.9392 29.4116 89.9526 29.5864 90.0163 29.7477C90.0799 29.9091 90.191 30.0505 90.337 30.1558C90.483 30.261 90.6579 30.3259 90.8417 30.3429L99.2661 32.3004C99.516 32.3578 99.7778 32.3525 100.025 32.285C100.272 32.2175 100.495 32.0903 100.672 31.9162L100.741 31.8248L101.448 30.91L101.527 30.8094C101.647 30.5991 101.705 30.363 101.694 30.1251C101.684 29.8873 101.606 29.6562 101.468 29.4556Z" fill="#83724C"/>
<path fill-rule="evenodd" clip-rule="evenodd" d="M115.908 39.225L124.333 41.1733C124.517 41.1904 124.692 41.2552 124.838 41.3605C124.984 41.4658 125.095 41.6072 125.158 41.7685C125.222 41.9299 125.235 42.1046 125.197 42.2728C125.159 42.4409 125.071 42.5956 124.942 42.7192L122.849 45.3994L122.131 46.3141L120.057 48.9851C119.969 49.1346 119.838 49.2583 119.679 49.3423C119.52 49.4264 119.339 49.4674 119.156 49.4607C118.973 49.454 118.796 49.4 118.644 49.3047C118.492 49.2094 118.372 49.0765 118.297 48.9211L113.687 42.0698C113.556 41.8649 113.487 41.6311 113.487 41.3929C113.487 41.1547 113.556 40.9208 113.687 40.716L113.756 40.6245L114.257 39.9842L114.463 39.7098L114.542 39.6092C114.713 39.439 114.93 39.3139 115.17 39.2465C115.41 39.179 115.665 39.1716 115.908 39.225Z" fill="#83724C"/>
<path fill-rule="evenodd" clip-rule="evenodd" d="M106.609 27.3151L107.219 19.2564C107.257 19.0892 107.244 18.9155 107.182 18.7548C107.119 18.5942 107.01 18.453 106.865 18.3473C106.721 18.2416 106.548 18.1756 106.365 18.1569C106.183 18.1381 105.998 18.1672 105.833 18.241L97.9294 20.6376C97.7493 20.6678 97.5818 20.7441 97.4458 20.858C97.3098 20.972 97.2107 21.119 97.1596 21.2825C97.1085 21.446 97.1075 21.6196 97.1567 21.7836C97.2058 21.9476 97.3032 22.0956 97.4379 22.2109L103.021 28.3945C103.185 28.5801 103.399 28.7213 103.641 28.8034C103.883 28.8855 104.144 28.9054 104.398 28.861H104.516L104.801 28.7787L105.656 28.5134H105.793C106.038 28.4069 106.245 28.2375 106.39 28.0252C106.534 27.8129 106.61 27.5665 106.609 27.3151Z" fill="#83724C"/>
<path fill-rule="evenodd" clip-rule="evenodd" d="M112.134 43.1217L117.707 49.3053C117.845 49.4196 117.945 49.5675 117.996 49.7321C118.048 49.8968 118.048 50.0717 117.998 50.2367C117.948 50.4017 117.849 50.5502 117.712 50.6653C117.576 50.7804 117.407 50.8575 117.226 50.8878L113.844 51.9031L112.694 52.2507L109.322 53.2752C109.157 53.349 108.972 53.3782 108.79 53.3594C108.607 53.3406 108.434 53.2746 108.29 53.1689C108.145 53.0632 108.036 52.9221 107.973 52.7614C107.911 52.6007 107.898 52.427 107.936 52.2599L108.546 44.2011C108.559 43.9623 108.642 43.7314 108.786 43.5332C108.93 43.335 109.129 43.1769 109.362 43.076H109.48L110.237 42.8564L110.62 42.7284H110.758C111.004 42.6753 111.261 42.6838 111.502 42.7529C111.744 42.8219 111.962 42.9492 112.134 43.1217Z" fill="#83724C"/>
<path fill-rule="evenodd" clip-rule="evenodd" d="M112.134 28.4037L117.707 22.211C117.845 22.0967 117.945 21.9488 117.996 21.7841C118.048 21.6194 118.048 21.4446 117.998 21.2796C117.948 21.1146 117.849 20.9661 117.712 20.851C117.576 20.7358 117.407 20.6587 117.226 20.6285L112.694 19.2656L109.322 18.2868C109.157 18.213 108.972 18.1838 108.79 18.2026C108.607 18.2214 108.434 18.2874 108.29 18.3931C108.145 18.4988 108.036 18.6399 107.973 18.8006C107.911 18.9613 107.898 19.135 107.936 19.3021L108.546 27.3609C108.559 27.5997 108.642 27.8306 108.786 28.0288C108.93 28.227 109.129 28.3851 109.362 28.486H109.48L109.775 28.5683L110.62 28.8336H110.758C111.007 28.8804 111.266 28.8652 111.507 28.7898C111.749 28.7143 111.965 28.5812 112.134 28.4037Z" fill="#83724C"/>
<path fill-rule="evenodd" clip-rule="evenodd" d="M106.619 44.2011L107.219 52.2599C107.257 52.427 107.244 52.6008 107.181 52.7614C107.119 52.9221 107.009 53.0633 106.865 53.169C106.721 53.2747 106.548 53.3406 106.365 53.3594C106.183 53.3782 105.998 53.3491 105.833 53.2753L102.441 52.2508L101.301 51.9032L97.9291 50.8878C97.7469 50.8589 97.5772 50.7829 97.4393 50.6683C97.3015 50.5537 97.2012 50.4053 97.1499 50.2401C97.0986 50.0748 97.0983 49.8995 97.1492 49.7342C97.2001 49.5688 97.3001 49.4202 97.4376 49.3053L103.021 43.1218C103.184 42.9362 103.398 42.795 103.64 42.7129C103.883 42.6308 104.144 42.6109 104.397 42.6553H104.515L105.498 42.9388L105.695 43.0028H105.833C106.07 43.1158 106.268 43.2874 106.407 43.4989C106.546 43.7104 106.619 43.9534 106.619 44.2011Z" fill="#83724C"/>
<path fill-rule="evenodd" clip-rule="evenodd" d="M101.468 42.0698L96.8774 48.9119C96.8025 49.0673 96.6824 49.2002 96.5308 49.2955C96.3791 49.3908 96.2018 49.4448 96.019 49.4515C95.8361 49.4582 95.6548 49.4172 95.4956 49.3331C95.3364 49.2491 95.2056 49.1254 95.1178 48.9759L93.024 46.2958L92.3162 45.3811L90.2322 42.7101C90.1039 42.5865 90.0156 42.4317 89.9774 42.2636C89.9392 42.0955 89.9526 41.9207 90.0163 41.7594C90.0799 41.598 90.191 41.4566 90.337 41.3513C90.483 41.2461 90.6579 41.1812 90.8417 41.1642L99.2661 39.2158C99.515 39.1543 99.7771 39.1567 100.025 39.2228C100.272 39.2888 100.496 39.416 100.672 39.5908L100.741 39.6823L101.33 40.4415L101.448 40.5971L101.527 40.6977C101.653 40.9096 101.714 41.1495 101.703 41.3914C101.693 41.6332 101.612 41.8678 101.468 42.0698Z" fill="#83724C"/>
<path fill-rule="evenodd" clip-rule="evenodd" d="M116.538 37.4961L124.598 40.5239C124.757 40.6065 124.938 40.6466 125.12 40.6394C125.302 40.6323 125.478 40.5783 125.629 40.4834C125.779 40.3886 125.899 40.2566 125.974 40.1022C126.049 39.9479 126.076 39.7772 126.053 39.6091V31.8705C126.076 31.7025 126.049 31.5318 125.974 31.3774C125.899 31.223 125.779 31.0911 125.629 30.9962C125.478 30.9014 125.302 30.8474 125.12 30.8402C124.938 30.8331 124.757 30.8731 124.598 30.9558L116.538 33.9835C116.301 34.073 116.093 34.219 115.936 34.4069C115.779 34.5948 115.678 34.8179 115.643 35.0538V36.4259C115.677 36.662 115.778 36.8855 115.935 37.0736C116.092 37.2616 116.3 37.4074 116.538 37.4961Z" fill="#83724C"/>
<path fill-rule="evenodd" clip-rule="evenodd" d="M98.6468 37.4961L90.5959 40.5239C90.437 40.6065 90.2566 40.6466 90.0747 40.6394C89.8928 40.6323 89.7166 40.5783 89.5658 40.4834C89.4149 40.3886 89.2953 40.2566 89.2204 40.1022C89.1454 39.9479 89.1179 39.7772 89.1411 39.6091V31.8705C89.1179 31.7025 89.1454 31.5318 89.2204 31.3774C89.2953 31.223 89.4149 31.0911 89.5658 30.9962C89.7166 30.9014 89.8928 30.8474 90.0747 30.8402C90.2566 30.8331 90.437 30.8731 90.5959 30.9558L98.6468 33.9835C98.8862 34.0697 99.0959 34.2148 99.2534 34.4033C99.411 34.5919 99.5105 34.8167 99.5414 35.0538V36.4259C99.5116 36.6633 99.4125 36.8886 99.2547 37.0773C99.097 37.2659 98.8868 37.4108 98.6468 37.4961Z" fill="#83724C"/>
<path fill-rule="evenodd" clip-rule="evenodd" d="M123.222 10.4476L128.58 14.0608C128.652 14.0849 128.73 14.0949 128.807 14.0904C128.884 14.0858 128.959 14.0667 129.028 14.0342C129.097 14.0016 129.158 13.9564 129.208 13.9013C129.258 13.8461 129.295 13.7821 129.317 13.7132L130.3 7.65766C130.3 7.40153 130.418 7.13627 130.182 6.98077L130.005 6.85269C129.769 6.69719 129.533 6.8527 129.268 6.94417L123.311 9.68836C123.249 9.73121 123.197 9.78544 123.159 9.84767C123.121 9.9099 123.097 9.97878 123.089 10.05C123.08 10.1213 123.088 10.1933 123.111 10.2617C123.134 10.3301 123.172 10.3934 123.222 10.4476Z" fill="#83724C"/>
<path fill-rule="evenodd" clip-rule="evenodd" d="M86.5363 57.4372L91.8937 61.0962C91.9457 61.1526 91.9845 61.2185 92.0078 61.2897C92.0312 61.3608 92.0385 61.4356 92.0292 61.5095C92.02 61.5833 91.9945 61.6546 91.9542 61.7189C91.914 61.7831 91.8599 61.839 91.7954 61.8828L85.8973 64.627C85.6515 64.7459 85.4058 64.8923 85.1699 64.7368L84.9831 64.6087C84.757 64.4532 84.8258 64.1971 84.8553 63.9318L85.7892 57.8214C85.8037 57.7466 85.836 57.6757 85.8836 57.6139C85.9313 57.5521 85.9931 57.501 86.0646 57.4642C86.1362 57.4274 86.2156 57.4059 86.2972 57.4012C86.3788 57.3966 86.4604 57.4089 86.5363 57.4372Z" fill="#83724C"/>
<path fill-rule="evenodd" clip-rule="evenodd" d="M136.198 23.8484L138.243 29.6935C138.285 29.7581 138.34 29.8139 138.406 29.8576C138.472 29.9012 138.547 29.9317 138.627 29.9471C138.706 29.9626 138.788 29.9627 138.867 29.9474C138.947 29.932 139.022 29.9017 139.088 29.8581L143.679 25.4674C143.865 25.2845 144.101 25.1107 144.013 24.8546L143.944 24.6625C143.846 24.4064 143.571 24.3881 143.285 24.324L136.758 23.2629C136.493 23.2081 136.139 23.5831 136.198 23.8484Z" fill="#83724C"/>
<path fill-rule="evenodd" clip-rule="evenodd" d="M76.8632 41.7953L78.898 47.6496C78.9063 47.7237 78.8977 47.7987 78.8728 47.8695C78.8479 47.9403 78.8072 48.0055 78.7534 48.0608C78.6996 48.116 78.6339 48.1601 78.5606 48.1901C78.4873 48.2201 78.408 48.2354 78.3279 48.235L71.84 47.1922C71.5647 47.1465 71.2698 47.1373 71.1813 46.8812L71.1125 46.68C71.0142 46.433 71.2403 46.2592 71.4271 46.0579L76.0473 41.6306C76.1111 41.5876 76.1839 41.5576 76.261 41.5426C76.3381 41.5276 76.4178 41.5278 76.4948 41.5433C76.5718 41.5589 76.6444 41.5894 76.7078 41.6328C76.7713 41.6762 76.8243 41.7316 76.8632 41.7953Z" fill="#83724C"/>
<path fill-rule="evenodd" clip-rule="evenodd" d="M138.262 41.7954L136.198 47.6497C136.109 47.9058 136.473 48.2808 136.778 48.2351L143.256 47.1923C143.531 47.1923 143.826 47.1465 143.915 46.8904L143.983 46.6892C144.072 46.4331 143.856 46.2684 143.669 46.0672L139.049 41.6307C138.986 41.5923 138.915 41.566 138.841 41.5535C138.767 41.5409 138.691 41.5424 138.618 41.5578C138.544 41.5731 138.475 41.6021 138.414 41.6429C138.353 41.6837 138.301 41.7356 138.262 41.7954Z" fill="#83724C"/>
<path fill-rule="evenodd" clip-rule="evenodd" d="M78.8981 23.8484L76.8534 29.7027C76.8128 29.7673 76.7579 29.8232 76.6923 29.8667C76.6268 29.9102 76.5521 29.9403 76.4731 29.955C76.3942 29.9696 76.3128 29.9686 76.2343 29.9519C76.1559 29.9353 76.0821 29.9033 76.0178 29.8582L71.4272 25.4675C71.2306 25.2845 71.0045 25.1199 71.0929 24.8638L71.1618 24.6625C71.2502 24.4064 71.5353 24.3881 71.8105 24.3241L78.3574 23.2721C78.6327 23.2081 78.9865 23.5923 78.8981 23.8484Z" fill="#83724C"/>
<path fill-rule="evenodd" clip-rule="evenodd" d="M128.599 57.4464L123.242 61.1053C123.19 61.1618 123.151 61.2277 123.128 61.2988C123.104 61.3699 123.097 61.4448 123.106 61.5186C123.116 61.5925 123.141 61.6638 123.181 61.728C123.222 61.7923 123.276 61.8481 123.34 61.892L129.238 64.6362C129.484 64.746 129.73 64.9014 129.966 64.7368L130.143 64.6179C130.379 64.4624 130.31 64.2062 130.28 63.941L129.346 57.8306C129.332 57.7557 129.3 57.6848 129.252 57.623C129.204 57.5612 129.142 57.5101 129.071 57.4733C128.999 57.4365 128.92 57.415 128.838 57.4104C128.757 57.4057 128.675 57.418 128.599 57.4464Z" fill="#83724C"/>
<path fill-rule="evenodd" clip-rule="evenodd" d="M91.9033 10.4567L86.5557 14.0699C86.4818 14.0989 86.4023 14.1133 86.3221 14.1122C86.2419 14.1112 86.1628 14.0947 86.0898 14.0637C86.0168 14.0328 85.9515 13.9881 85.8981 13.9325C85.8446 13.8769 85.8041 13.8115 85.7791 13.7406L84.7961 7.68508C84.7961 7.41981 84.6781 7.16369 84.9141 6.99903L85.091 6.88012C85.327 6.71546 85.5629 6.88012 85.8283 6.97159L91.7853 9.71578C91.8463 9.75651 91.8979 9.80824 91.937 9.86789C91.9761 9.92754 92.0019 9.99388 92.0129 10.063C92.0239 10.1321 92.0199 10.2026 92.0011 10.2702C91.9822 10.3378 91.949 10.4013 91.9033 10.4567Z" fill="#83724C"/>
<path fill-rule="evenodd" clip-rule="evenodd" d="M110.886 6.71548H104.27C104.191 6.69886 104.117 6.66709 104.052 6.62222C103.987 6.57734 103.933 6.52035 103.893 6.45489C103.853 6.38944 103.829 6.31696 103.821 6.24212C103.813 6.16728 103.822 6.09171 103.847 6.02028L106.914 0.605105C107.042 0.376423 107.14 0.1203 107.435 0.1203H107.691C107.976 0.1203 108.084 0.367267 108.231 0.595949L111.338 6.08432C111.355 6.15353 111.357 6.22529 111.343 6.29516C111.329 6.36504 111.3 6.43155 111.258 6.49065C111.216 6.54975 111.161 6.60019 111.097 6.63885C111.033 6.67751 110.961 6.70359 110.886 6.71548Z" fill="#83724C"/>
<path fill-rule="evenodd" clip-rule="evenodd" d="M122.603 11.2251L128.019 14.884C128.255 15.0486 128.127 15.6432 127.823 15.7987L121.03 19.5766C120.735 19.7412 120.45 19.9424 120.214 19.7778L120.027 19.6589C119.792 19.4942 119.9 19.1924 119.959 18.8813L121.728 11.6367C121.787 11.3531 122.357 11.0604 122.603 11.2251Z" fill="#83724C"/>
<path fill-rule="evenodd" clip-rule="evenodd" d="M87.1456 56.6322L92.5718 60.2912C92.8077 60.4558 93.3779 60.1539 93.4565 59.8246L95.2259 52.6532C95.2947 52.3421 95.4225 52.0311 95.1768 51.8665L94.9998 51.7384C94.7639 51.5829 94.4789 51.7384 94.184 51.9214L87.3029 55.7266C87.0473 55.873 86.8998 56.4676 87.1456 56.6322Z" fill="#83724C"/>
<path fill-rule="evenodd" clip-rule="evenodd" d="M135.215 24.1229L137.279 30.0594C137.368 30.3156 136.886 30.7272 136.522 30.6998L128.658 30.0412C128.324 30.0412 127.97 30.0411 127.872 29.7667L127.803 29.5655C127.715 29.3094 127.99 29.1173 128.236 28.8977L134.242 24.0039C134.488 23.7753 135.136 23.8667 135.215 24.1229Z" fill="#83724C"/>
<path fill-rule="evenodd" clip-rule="evenodd" d="M77.856 41.466L79.94 47.3935C80.0284 47.6588 80.6772 47.7319 80.923 47.5124L86.8899 42.6643C87.1454 42.4631 87.4305 42.271 87.342 42.0149L87.2733 41.8136C87.1848 41.5484 86.8407 41.5484 86.4967 41.5118L78.5539 40.8349C78.2 40.7891 77.7773 41.2099 77.856 41.466Z" fill="#83724C"/>
<path fill-rule="evenodd" clip-rule="evenodd" d="M137.299 41.4661L135.215 47.3935C135.117 47.6588 134.468 47.732 134.232 47.5125L128.265 42.6644C128.009 42.4631 127.715 42.2711 127.803 42.0149L127.872 41.8137C127.96 41.5484 128.304 41.5484 128.648 41.5118L136.601 40.8349C136.915 40.7892 137.387 41.2008 137.299 41.4661Z" fill="#83724C"/>
<path fill-rule="evenodd" clip-rule="evenodd" d="M79.9301 24.1229L77.8658 30.0594C77.7675 30.3156 78.2492 30.7272 78.6129 30.6998L86.477 30.0412C86.8113 30.0412 87.175 30.0411 87.2634 29.7667L87.3322 29.5655C87.4207 29.3094 87.1455 29.1173 86.8997 28.8977L80.8935 24.0039C80.6674 23.7753 80.0186 23.8667 79.9301 24.1229Z" fill="#83724C"/>
<path fill-rule="evenodd" clip-rule="evenodd" d="M128.019 56.6322L122.593 60.2912C122.347 60.4467 121.777 60.1539 121.698 59.8155L119.929 52.644C119.86 52.333 119.742 52.022 119.978 51.8573L120.155 51.7293C120.401 51.5738 120.676 51.7293 120.981 51.9122L127.862 55.7175C128.137 55.873 128.255 56.4676 128.019 56.6322Z" fill="#83724C"/>
<path fill-rule="evenodd" clip-rule="evenodd" d="M92.5522 11.2251L87.1358 14.884C86.8998 15.0486 87.0276 15.6432 87.3422 15.7987L94.1348 19.5766C94.4199 19.7412 94.705 19.9424 94.9507 19.7778L95.1277 19.6589C95.3636 19.4942 95.2555 19.1924 95.1965 18.8813L93.4369 11.6367C93.3681 11.3531 92.7979 11.0604 92.5522 11.2251Z" fill="#83724C"/>
<path fill-rule="evenodd" clip-rule="evenodd" d="M110.925 63.822H104.23C103.936 63.822 103.65 63.264 103.798 62.953L106.904 56.184C107.042 55.8913 107.14 55.5712 107.435 55.5712H107.691C107.986 55.5712 108.094 55.873 108.241 56.1657L111.387 62.9896C111.505 63.2732 111.22 63.822 110.925 63.822Z" fill="#83724C"/>
<path fill-rule="evenodd" clip-rule="evenodd" d="M110.925 7.69421H104.23C103.935 7.69421 103.66 8.25218 103.798 8.56319L106.904 15.3322C107.042 15.6249 107.14 15.9451 107.435 15.9451H107.691C107.985 15.9451 108.094 15.6341 108.241 15.3505L111.387 8.52659C111.505 8.22473 111.22 7.69421 110.925 7.69421Z" fill="#83724C"/>
<path fill-rule="evenodd" clip-rule="evenodd" d="M85.5138 18.0398L93.5646 20.473C94.6656 20.8023 94.5476 21.5798 94.1741 22.0097L92.3654 24.324L89.3868 28.1475C89.2991 28.297 89.1683 28.4207 89.0091 28.5047C88.8498 28.5887 88.6686 28.6297 88.4857 28.6231C88.3028 28.6164 88.1255 28.5624 87.9739 28.4671C87.8222 28.3717 87.7022 28.2389 87.6272 28.0835L82.6532 21.6804C82.5142 21.4766 82.4403 21.2403 82.4403 20.9989C82.4403 20.7576 82.5142 20.5212 82.6532 20.3174L83.9901 18.6069L84.1572 18.3965C84.3265 18.2271 84.5425 18.1042 84.7818 18.0413C85.021 17.9784 85.2742 17.9779 85.5138 18.0398Z" fill="#83724C"/>
<path fill-rule="evenodd" clip-rule="evenodd" d="M132.502 49.8084L127.528 43.4053C127.452 43.2503 127.331 43.1182 127.179 43.0237C127.027 42.9293 126.849 42.8762 126.666 42.8705C126.483 42.8648 126.302 42.9067 126.144 42.9915C125.985 43.0762 125.855 43.2005 125.768 43.3504L123.959 45.7287L121.01 49.5431C120.637 49.973 120.519 50.7505 121.62 51.0798L129.671 53.513C129.92 53.5798 130.185 53.5791 130.434 53.5111C130.683 53.443 130.906 53.3104 131.077 53.1288L131.244 52.9184L131.529 52.5434L132.413 51.4183L132.581 51.2079C132.716 50.9931 132.781 50.746 132.767 50.4971C132.753 50.2483 132.661 50.0088 132.502 49.8084Z" fill="#83724C"/>
<path fill-rule="evenodd" clip-rule="evenodd" d="M100.918 9.34997L105.901 15.7531C106.58 16.6221 105.99 17.1892 105.42 17.3355L102.471 18.2503L100.583 18.8174L97.6343 19.7321C97.0838 19.9242 96.2482 19.787 96.2482 18.7168V10.841C96.2549 10.6006 96.3353 10.367 96.4798 10.1677C96.6244 9.96837 96.8271 9.81161 97.0641 9.71585L99.2268 9.05725L99.502 8.97493C99.7519 8.90634 100.018 8.90516 100.268 8.97155C100.519 9.03794 100.744 9.16918 100.918 9.34997Z" fill="#83724C"/>
<path fill-rule="evenodd" clip-rule="evenodd" d="M118.867 60.7577V52.8818C118.867 51.8116 118.032 51.6744 117.472 51.8665L114.523 52.7812L109.706 54.2356C109.136 54.382 108.546 54.9491 109.224 55.8181L114.208 62.2212C114.363 62.4128 114.575 62.558 114.818 62.6392C115.061 62.7205 115.323 62.7341 115.574 62.6786L115.859 62.6054L116.469 62.4133L117.747 62.0291L118.022 61.9468C118.275 61.851 118.492 61.6861 118.642 61.4739C118.793 61.2617 118.872 61.0121 118.867 60.7577Z" fill="#83724C"/>
<path fill-rule="evenodd" clip-rule="evenodd" d="M118.867 10.7586V18.6344C118.867 19.7046 118.032 19.8418 117.472 19.6497L114.523 18.735L109.706 17.2806C109.136 17.1342 108.546 16.5671 109.224 15.6981L114.208 9.29503C114.367 9.107 114.579 8.96434 114.82 8.88345C115.062 8.80255 115.323 8.7867 115.574 8.83767L117.737 9.49627L118.022 9.57859C118.274 9.67387 118.489 9.83729 118.64 10.0477C118.79 10.2581 118.87 10.5057 118.867 10.7586Z" fill="#83724C"/>
<path fill-rule="evenodd" clip-rule="evenodd" d="M100.918 62.1939L105.901 55.7907C106.58 54.9218 105.99 54.3546 105.42 54.2083L102.471 53.2935L97.6441 51.8391C97.0936 51.647 96.258 51.7842 96.258 52.8545V60.7303C96.2647 60.9707 96.3451 61.2043 96.4897 61.4036C96.6342 61.6029 96.8369 61.7597 97.074 61.8554L97.3492 61.9377L97.8898 62.1024L99.2366 62.514L99.5118 62.5872C99.7618 62.6564 100.028 62.656 100.278 62.5861C100.528 62.5162 100.75 62.3799 100.918 62.1939Z" fill="#83724C"/>
<path fill-rule="evenodd" clip-rule="evenodd" d="M132.502 21.7079L127.528 28.111C127.453 28.2664 127.333 28.3993 127.181 28.4946C127.029 28.5899 126.852 28.644 126.669 28.6506C126.486 28.6573 126.305 28.6163 126.146 28.5323C125.987 28.4482 125.856 28.3245 125.768 28.1751L122.79 24.3515L120.981 22.0372C120.607 21.6073 120.489 20.8298 121.59 20.5005L129.641 18.0673C129.89 18.0006 130.155 18.0013 130.404 18.0693C130.653 18.1373 130.876 18.2699 131.047 18.4515L131.214 18.6619L132.384 20.162L132.551 20.3724C132.677 20.5774 132.739 20.8108 132.73 21.0467C132.721 21.2825 132.642 21.5115 132.502 21.7079Z" fill="#83724C"/>
<path fill-rule="evenodd" clip-rule="evenodd" d="M85.5139 53.4764L93.5648 51.0432C94.6658 50.7139 94.5478 49.9364 94.1742 49.5065L91.2252 45.6921L89.4165 43.3687C89.3287 43.2192 89.1979 43.0955 89.0387 43.0115C88.8795 42.9274 88.6982 42.8864 88.5153 42.8931C88.3324 42.8997 88.1552 42.9538 88.0035 43.0491C87.8518 43.1444 87.7318 43.2773 87.6569 43.4327L82.6828 49.8358C82.5438 50.0395 82.47 50.2759 82.47 50.5172C82.47 50.7586 82.5438 50.995 82.6828 51.1987L82.8499 51.4091L84.0197 52.9093L84.1868 53.1196C84.3534 53.2843 84.5645 53.4042 84.7979 53.467C85.0313 53.5297 85.2786 53.533 85.5139 53.4764Z" fill="#83724C"/>
<path fill-rule="evenodd" clip-rule="evenodd" d="M136.621 38.0266L128.57 40.469C127.479 40.7891 127.076 40.1031 127.105 39.5542V32.0077C127.105 31.4498 127.479 30.7546 128.57 31.093L136.621 33.5262C136.864 33.6095 137.077 33.755 137.235 33.9459C137.393 34.1369 137.49 34.3655 137.515 34.6056V36.9839C137.483 37.2174 137.383 37.4383 137.225 37.6222C137.067 37.8062 136.858 37.9461 136.621 38.0266Z" fill="#83724C"/>
<path fill-rule="evenodd" clip-rule="evenodd" d="M78.5345 38.0266L86.5854 40.469C87.6765 40.7891 88.0795 40.1031 88.05 39.5542V32.0077C88.05 31.4498 87.6765 30.7546 86.5854 31.093L78.5345 33.5262C78.2913 33.6095 78.0783 33.755 77.9201 33.9459C77.7618 34.1369 77.6647 34.3655 77.6399 34.6056V36.9839C77.6717 37.2174 77.7719 37.4383 77.9297 37.6222C78.0875 37.8062 78.2968 37.9461 78.5345 38.0266Z" fill="#83724C"/>
<path fill-rule="evenodd" clip-rule="evenodd" d="M107.583 28.6141L109.834 29.291L112.095 29.977L114.886 33.5445V37.9718L112.095 41.5392L109.834 42.2253L107.583 42.9022L105.322 42.2253L103.061 41.5392L100.269 37.9718V33.5445L103.061 29.977L105.322 29.291L107.583 28.6141Z" fill="#83724C"/>
</svg>
